<svg width="12" height="12" viewBox="0 0 12 12" fill="none" xmlns="http://www.w3.org/2000/svg">
<path fill-rule="evenodd" clip-rule="evenodd" d="M6.69846 5.92943H8.15107C8.26354 5.92943 8.35446 6.02034 8.35446 6.13282C8.35446 6.24529 8.26334 6.33621 8.15107 6.33621H6.69846C6.60754 6.68604 6.29168 6.94638 5.91378 6.94638C5.4651 6.94638 5.10022 6.5815 5.10022 6.13282C5.10022 5.75472 5.36056 5.43906 5.71039 5.34814V3.28536C5.71039 3.17289 5.80151 3.08197 5.91378 3.08197C6.02605 3.08197 6.11717 3.17289 6.11717 3.28536V5.34814C6.40171 5.42217 6.62442 5.64489 6.69846 5.92943ZM5.507 6.13282C5.507 6.35716 5.68944 6.5396 5.91378 6.5396C6.13812 6.5396 6.32056 6.35716 6.32056 6.13282C6.32056 5.90848 6.13812 5.72604 5.91378 5.72604C5.68944 5.72604 5.507 5.90848 5.507 6.13282Z" fill="currentColor"/>
<path fill-rule="evenodd" clip-rule="evenodd" d="M11.0408 2.81897L10.2077 1.98589L9.86666 2.32677C10.8183 3.31463 11.4053 4.65619 11.4053 6.1328C11.4053 8.14596 10.3157 9.90853 8.69595 10.8647L9.31181 11.4805C9.39134 11.5601 9.39134 11.6886 9.31181 11.7681C9.27215 11.8078 9.22008 11.8277 9.16801 11.8277C9.11595 11.8277 9.06388 11.8078 9.02422 11.7681L8.32252 11.0664C7.59479 11.4232 6.77737 11.6243 5.91378 11.6243C5.05018 11.6243 4.23276 11.4232 3.50503 11.0664L2.80334 11.7681C2.76368 11.8078 2.71161 11.8277 2.65954 11.8277C2.60747 11.8277 2.5554 11.8078 2.51574 11.7681C2.43622 11.6886 2.43622 11.5601 2.51574 11.4805L3.13161 10.8647C1.51181 9.90853 0.422252 8.14596 0.422252 6.1328C0.422252 4.65619 1.00924 3.31463 1.9609 2.32677L1.62002 1.98589L0.78693 2.81897C0.748896 2.85721 0.697032 2.87857 0.643134 2.87857C0.589235 2.87857 0.537574 2.85721 0.499337 2.81897C-0.144799 2.17504 -0.144799 1.12697 0.499337 0.483041C1.14347 -0.160891 2.19134 -0.160891 2.83527 0.483041C2.87351 0.521075 2.89486 0.572736 2.89486 0.626837C2.89486 0.680939 2.87351 0.732397 2.83527 0.770634L1.90761 1.69829L2.25337 2.04385C3.22557 1.17253 4.50876 0.641278 5.91398 0.641278C7.3192 0.641278 8.60239 1.17253 9.57459 2.04385L9.92015 1.69829L8.99249 0.770634C8.95425 0.7326 8.9329 0.680939 8.9329 0.626837C8.9329 0.572736 8.95425 0.521278 8.99249 0.483041C9.63642 -0.160891 10.6843 -0.160891 11.3284 0.483041C11.9726 1.12697 11.9726 2.17504 11.3284 2.81897C11.2904 2.85721 11.2385 2.87857 11.1846 2.87857C11.1307 2.87857 11.0791 2.85721 11.0408 2.81897ZM11.1726 2.37599C11.521 1.88968 11.4771 1.20711 11.0406 0.770634C10.6039 0.333956 9.92157 0.290227 9.43547 0.638634L11.1726 2.37599ZM0.65493 2.37579C0.306523 1.88968 0.350456 1.20711 0.78693 0.770634C1.2234 0.334159 1.90598 0.290431 2.39208 0.638634L0.65493 2.37579ZM0.829032 6.1328C0.829032 8.93653 3.11005 11.2175 5.91378 11.2175C8.71771 11.2175 10.9985 8.93653 10.9985 6.1328C10.9985 3.32907 8.71751 1.04806 5.91378 1.04806C3.11005 1.04806 0.829032 3.32907 0.829032 6.1328Z" fill="currentColor"/>
<path d="M5.91378 2.04041C6.02605 2.04041 6.11717 1.94949 6.11717 1.83702V1.63363C6.11717 1.52115 6.02605 1.43024 5.91378 1.43024C5.80151 1.43024 5.71039 1.52115 5.71039 1.63363V1.83702C5.71039 1.94929 5.80151 2.04041 5.91378 2.04041Z" fill="currentColor"/>
<path d="M5.91378 10.176C5.80151 10.176 5.71039 10.2669 5.71039 10.3794V10.5828C5.71039 10.6952 5.80151 10.7862 5.91378 10.7862C6.02605 10.7862 6.11717 10.6952 6.11717 10.5828V10.3794C6.11717 10.2669 6.02625 10.176 5.91378 10.176Z" fill="currentColor"/>
<path d="M10.185 6.3116H10.3883C10.5006 6.3116 10.5917 6.22068 10.5917 6.10821C10.5917 5.99573 10.5006 5.90482 10.3883 5.90482H10.185C10.0727 5.90482 9.98157 5.99573 9.98157 6.10821C9.98157 6.22068 10.0727 6.3116 10.185 6.3116Z" fill="currentColor"/>
<path d="M1.64262 5.90482H1.43923C1.32696 5.90482 1.23584 5.99573 1.23584 6.10821C1.23584 6.22068 1.32696 6.3116 1.43923 6.3116H1.64262C1.75489 6.3116 1.84601 6.22068 1.84601 6.10821C1.84601 5.99573 1.75509 5.90482 1.64262 5.90482Z" fill="currentColor"/>
<path d="M8.93409 2.80028L8.7903 2.94407C8.71077 3.0236 8.71077 3.15214 8.7903 3.23167C8.82996 3.27133 8.88202 3.29126 8.93409 3.29126C8.98616 3.29126 9.03823 3.27133 9.07789 3.23167L9.22169 3.08787C9.30121 3.00834 9.30121 2.8798 9.22169 2.80028C9.14216 2.72075 9.01341 2.72075 8.93409 2.80028Z" fill="currentColor"/>
<path d="M2.74983 8.98453L2.60603 9.12832C2.52651 9.20785 2.52651 9.33639 2.60603 9.41592C2.64569 9.45558 2.69776 9.47551 2.74983 9.47551C2.8019 9.47551 2.85396 9.45558 2.89362 9.41592L3.03742 9.27212C3.11695 9.19259 3.11695 9.06405 3.03742 8.98453C2.9579 8.905 2.82935 8.9052 2.74983 8.98453Z" fill="currentColor"/>
<path d="M9.07789 8.98454C8.99836 8.90501 8.86982 8.90501 8.7903 8.98454C8.71077 9.06407 8.71077 9.19261 8.7903 9.27213L8.93409 9.41593C8.97375 9.45559 9.02582 9.47552 9.07789 9.47552C9.12996 9.47552 9.18202 9.45559 9.22169 9.41593C9.30121 9.3364 9.30121 9.20786 9.22169 9.12834L9.07789 8.98454Z" fill="currentColor"/>
<path d="M2.89362 2.80028C2.8141 2.72075 2.68556 2.72075 2.60603 2.80028C2.52651 2.8798 2.52651 3.00834 2.60603 3.08787L2.74983 3.23167C2.78949 3.27133 2.84156 3.29126 2.89362 3.29126C2.94569 3.29126 2.99776 3.27133 3.03742 3.23167C3.11695 3.15214 3.11695 3.0236 3.03742 2.94407L2.89362 2.80028Z" fill="currentColor"/>
</svg>
