<svg width="27" height="33" viewBox="0 0 27 33" fill="none" xmlns="http://www.w3.org/2000/svg">
<path fill-rule="evenodd" clip-rule="evenodd" d="M21.246 20.25C22.0373 19.4325 21.9698 18.0817 21.0968 17.235C19.377 15.5655 19.248 12.9053 20.8035 11.2995C21.5948 10.485 21.5303 9.13125 20.6573 8.2845C18.9375 6.618 18.8055 3.95475 20.364 2.349C20.4023 2.3085 20.4465 2.27025 20.493 2.238C20.9798 1.89225 21.1703 1.6785 21.24 1.57875C21.1875 1.494 21.0998 1.374 21.0293 1.28025C20.874 1.06875 20.6835 0.8085 20.514 0.495L17.8298 0.5355C17.487 0.5415 17.1683 0.732 17.004 1.03425C16.8368 1.33575 16.8458 1.70775 17.0243 2.00325C17.5373 2.84175 17.4173 3.9195 16.7318 4.62825C15.4425 5.95875 15.4748 8.08875 16.8015 9.378C17.6573 10.2067 17.6775 11.5747 16.8488 12.4305C16.2218 13.0747 15.885 13.9215 15.8993 14.8177C15.9143 15.7147 16.2743 16.5555 16.9193 17.1795C17.7743 18.0083 17.7953 19.377 16.9658 20.232C16.7663 20.4375 16.611 20.6625 16.4738 20.9003C15.9113 20.3258 15.7035 19.479 15.987 18.6825C16.2923 17.8387 16.248 16.9275 15.867 16.116C15.4838 15.3045 14.8065 14.6895 13.9628 14.3873C13.4213 14.1908 12.984 13.7955 12.741 13.2772C12.495 12.7552 12.4688 12.1665 12.6623 11.625C13.2893 9.88125 12.381 7.95375 10.638 7.32975C9.51828 6.9255 8.93253 5.6865 9.33678 4.56675C9.64128 3.72075 9.59778 2.8095 9.21378 1.998C8.83278 1.1895 8.15628 0.57375 7.31253 0.26925L7.07853 0.1875L5.35278 1.002C5.99703 2.253 6.33678 3.90225 5.97378 5.25525C5.64228 6.495 6.21078 7.728 7.24203 8.00325C9.26628 8.5425 10.386 10.9717 9.73503 13.4115C9.40428 14.6512 9.97278 15.8812 11.001 16.1572C13.0283 16.6987 14.1473 19.125 13.494 21.5655C13.1633 22.8045 13.7318 24.0375 14.763 24.3135C16.1925 24.6937 17.1683 26.0182 17.391 27.621C17.3025 27.7672 17.2035 27.9082 17.0828 28.0312C16.4588 28.6755 16.122 29.5253 16.134 30.4215C16.1483 31.3178 16.512 32.1563 17.1533 32.7803L17.3318 32.9528L20.628 32.9032C20.5343 31.5322 20.8508 30.0555 21.6825 29.1968C22.4738 28.3823 22.4093 27.0292 21.5363 26.1825C19.8195 24.5152 19.6875 21.855 21.246 20.25Z" fill="currentColor"/>
<path fill-rule="evenodd" clip-rule="evenodd" d="M25.5765 24.003C24.7238 23.1735 24.7035 21.8055 25.5323 20.9497C26.1563 20.3055 26.493 19.4587 26.4788 18.5625C26.4668 17.6655 26.1038 16.8277 25.4588 16.2007C25.0463 15.7995 24.8115 15.2602 24.8025 14.6865C24.7943 14.109 25.011 13.5645 25.4153 13.1482C26.7038 11.8207 26.6715 9.68849 25.3418 8.39924C24.9285 7.99799 24.6945 7.45874 24.6855 6.88424C24.6765 6.30749 24.8933 5.76224 25.2953 5.34674C26.5838 4.01924 26.5545 1.88924 25.2248 0.59699L25.0463 0.42749L22.89 0.45974C23.5928 1.56449 23.61 2.60099 21.8468 3.89024C21.1088 4.71074 21.1935 6.02324 22.0463 6.85199C23.766 8.51924 23.8943 11.1825 22.3388 12.7875C21.5475 13.602 21.612 14.9557 22.485 15.8025C24.2048 17.4697 24.3338 20.1292 22.7783 21.735C21.987 22.5525 22.0515 23.9032 22.9245 24.75C24.6443 26.4165 24.7733 29.0797 23.2178 30.6855C22.8255 31.0897 22.638 32.0182 22.6815 32.874L24.5333 32.847C24.885 32.8417 25.1955 32.6572 25.368 32.349C25.5353 32.0445 25.5293 31.6695 25.3478 31.368C24.8438 30.5332 24.9668 29.4547 25.6493 28.752C26.9385 27.4245 26.9063 25.2915 25.5765 24.003Z" fill="currentColor"/>
<path fill-rule="evenodd" clip-rule="evenodd" d="M14.1795 26.49C12.1523 25.9477 11.0333 23.5222 11.6865 21.0817C12.0173 19.8427 11.4495 18.612 10.4213 18.3367C8.39327 17.7945 7.27427 15.369 7.92452 12.9285C8.25602 11.6895 7.69052 10.4557 6.65927 10.1805C4.63202 9.63824 3.51602 7.21274 4.16627 4.77224C4.37102 4.01324 4.01402 2.68049 3.48377 1.88324L0.553522 3.26324C0.240022 3.40949 0.0292721 3.71474 0.00302212 4.05749C-0.0232279 4.40024 0.138022 4.73699 0.424522 4.93349C1.23602 5.48399 1.57052 6.51824 1.23602 7.44374C0.934522 8.29049 0.975772 9.20174 1.35902 10.0132C1.74302 10.8247 2.41727 11.4375 3.26402 11.742C3.80552 11.9385 4.23902 12.3307 4.48502 12.852C4.73177 13.374 4.75802 13.9597 4.56452 14.5042C3.93752 16.245 4.84577 18.1725 6.58877 18.7995C7.70777 19.2037 8.29127 20.4405 7.89002 21.5625C7.58477 22.4062 7.62902 23.3167 8.01002 24.1282C8.39327 24.9405 9.07052 25.5555 9.91427 25.857C11.0333 26.2612 11.616 27.498 11.2148 28.62C10.9103 29.4637 10.9538 30.378 11.3378 31.1865C11.7188 31.998 12.3953 32.613 13.239 32.9145L13.4738 33L15.1493 32.2117C14.8185 31.5727 14.8508 30.6472 15.4688 29.1562C15.753 27.9457 15.1875 26.7592 14.1795 26.49Z" fill="currentColor"/>
</svg>
