<svg width="16" height="18" viewBox="0 0 16 18" fill="none" xmlns="http://www.w3.org/2000/svg">
<path fill-rule="evenodd" clip-rule="evenodd" d="M11.4543 6.92653C11.6517 6.92653 11.8052 7.08344 11.8052 7.28518C11.8052 7.48692 11.6517 7.64384 11.4543 7.64384C11.2569 7.64384 11.1034 7.48692 11.1034 7.28518C11.1034 7.08344 11.2569 6.92653 11.4543 6.92653ZM4.61147 6.92653C4.80886 6.92653 4.96239 7.08344 4.96239 7.28518C4.96239 7.48692 4.80886 7.64384 4.61147 7.64384C4.41408 7.64384 4.26056 7.48692 4.26056 7.28518C4.26056 7.08344 4.41408 6.92653 4.61147 6.92653ZM13.9985 5.44707L15.2267 17.1706H0.83913L2.06733 5.44707H4.21669V6.1868C3.77805 6.34371 3.471 6.76961 3.471 7.26276C3.471 7.89041 3.97544 8.40598 4.58954 8.40598C5.20364 8.40598 5.70808 7.89041 5.70808 7.26276C5.70808 6.76961 5.40103 6.34371 4.96239 6.1868V5.44707H11.0157V6.1868C10.577 6.34371 10.27 6.76961 10.27 7.26276C10.27 7.89041 10.7744 8.40598 11.3885 8.40598C12.0026 8.40598 12.5071 7.89041 12.5071 7.26276C12.5071 6.76961 12.2 6.34371 11.7614 6.1868V5.44707H13.9985ZM5.00625 3.90037C5.00625 2.19676 6.36605 0.806974 8.0329 0.806974C9.69975 0.806974 11.0595 2.19676 11.0595 3.90037V4.66252H5.00625V3.90037ZM8.0329 0C5.92741 0 4.21669 1.74844 4.21669 3.90037V4.66252H1.71642C1.51903 4.66252 1.34357 4.81943 1.32164 5.02117L0.00570522 17.5517C-0.016227 17.6638 0.0276374 17.7758 0.0934341 17.8655C0.159231 17.9552 0.268892 18 0.378553 18H15.6214C15.7311 18 15.8408 17.9552 15.9066 17.8655C15.9724 17.7758 16.0162 17.6638 15.9943 17.5517L14.6784 5.02117C14.6564 4.81943 14.481 4.66252 14.2836 4.66252H11.8491V3.90037C11.8491 1.74844 10.1384 0 8.0329 0V0Z" fill="currentColor"/>
</svg>
