<svg width="84" height="84" viewBox="0 0 84 84" fill="none" xmlns="http://www.w3.org/2000/svg">
<path fill-rule="evenodd" clip-rule="evenodd" d="M42 82C64.0914 82 82 64.0914 82 42C82 19.9086 64.0914 2 42 2C19.9086 2 2 19.9086 2 42C2 64.0914 19.9086 82 42 82Z" stroke="currentColor" stroke-width="3"/>
<path fill-rule="evenodd" clip-rule="evenodd" d="M55.6313 29.7205L35.5053 49.0613L27.3694 41.2444C26.369 40.2848 24.75 40.2839 23.7503 41.2453C22.7499 42.206 22.7499 43.7629 23.7503 44.7243L33.6957 54.2803C34.1951 54.7602 34.8496 55 35.5053 55C36.1598 55 36.8165 54.7602 37.3158 54.2794C37.3168 54.2775 37.3185 54.2756 37.3204 54.273L59.2504 33.1986C60.2499 32.2379 60.2499 30.6803 59.2504 29.7205C58.2508 28.7598 56.63 28.7598 55.6313 29.7205Z" fill="currentColor"/>
</svg>
