<svg width="33" height="34" viewBox="0 0 33 34" fill="none" xmlns="http://www.w3.org/2000/svg">
<path fill-rule="evenodd" clip-rule="evenodd" d="M31.2032 21.8292C31.3511 21.849 31.5179 21.9028 31.7117 21.9924C31.8999 22.0802 32.1205 22.0648 32.2959 21.9504C32.4707 21.8366 32.5764 21.6407 32.5764 21.4305V20.0495C32.5764 18.7185 31.9586 17.4389 30.9227 16.6198L20.3053 6.45876C20.081 6.24425 19.7345 6.23189 19.4974 6.43032C19.3079 6.58672 19.0164 6.61949 18.6987 6.52058C17.9397 6.28258 17.2986 5.44247 17.2986 4.68581C17.2986 4.52941 17.3286 4.39032 17.3872 4.27287C17.5088 4.02869 17.4575 3.7332 17.2619 3.54527L15.4408 1.80323C15.4249 1.7884 15.4084 1.77418 15.3913 1.7612C13.9778 0.671341 12.2508 0.308468 10.9223 0.898832L1.88333 5.31018C0.853 5.76083 0.1875 6.8173 0.1875 8.00421V17.7437C0.1875 17.9273 0.268167 18.101 0.4075 18.219C0.546833 18.3359 0.728944 18.3841 0.908611 18.352C1.10539 18.3142 1.32783 18.3297 1.55089 18.3996C2.46817 18.687 3.24306 19.7033 3.24306 20.6201C3.24306 21.3786 2.68267 21.7532 1.91206 21.5121C1.66944 21.4361 1.42317 21.2976 1.18178 21.101C0.997833 20.9527 0.746667 20.9217 0.534 21.0256C0.321944 21.1282 0.1875 21.3452 0.1875 21.5826V22.9197C0.1875 24.2494 1.07789 25.4036 2.32883 25.7182L29.0246 33.673C29.2538 33.7311 29.4884 33.7608 29.7225 33.7608C30.4736 33.7608 31.1843 33.4653 31.7239 32.9287C32.2733 32.3816 32.577 31.6497 32.577 30.8677V25.712C32.577 25.4091 32.3601 25.1507 32.0637 25.1019C31.1751 24.9566 30.2939 24.0293 30.1399 23.078C30.0751 22.6768 30.1448 22.33 30.3367 22.1012C30.5261 21.8744 30.8323 21.7798 31.2032 21.8292ZM16.8439 15.1757C16.7492 15.1461 16.6557 15.1071 16.5659 15.0595C16.0251 14.7764 15.5875 14.2033 15.4732 13.629C15.4543 13.5345 15.4445 13.4399 15.4445 13.3465C15.4463 13.3348 15.4518 13.2897 15.4543 13.2662C15.4824 12.8477 15.7219 12.593 16.1216 12.593C16.2353 12.593 16.3569 12.6128 16.4828 12.6523C17.1929 12.8749 17.7918 13.6229 17.8676 14.3381C17.8682 14.3437 17.8669 14.3486 17.8669 14.3542L17.8822 14.4871C17.8822 14.5872 17.8639 14.675 17.8413 14.7585L17.8413 14.7585C17.8327 14.7882 17.8242 14.8178 17.8126 14.845C17.7893 14.9025 17.7582 14.9513 17.7227 14.9965C17.6897 15.0373 17.6524 15.0719 17.6109 15.1028C17.5938 15.1158 17.5754 15.1275 17.5565 15.138C17.5186 15.1603 17.4795 15.1813 17.4361 15.1955C17.3744 15.2147 17.3078 15.227 17.2357 15.2295C17.2197 15.2303 17.2028 15.2293 17.1859 15.2284C17.1762 15.2278 17.1664 15.2273 17.1568 15.227C17.0566 15.2227 16.9527 15.2097 16.8439 15.1757ZM11.4319 2.02207L2.39117 6.43403C1.83872 6.67636 1.47694 7.20676 1.41828 7.82432C1.43172 7.86141 1.44028 7.8985 1.44517 7.93745C1.49956 8.38439 1.71956 8.64774 2.09783 8.7213L14.4197 12.431C14.7203 11.7801 15.3412 11.3572 16.1204 11.3572C16.3569 11.3572 16.6001 11.3962 16.8433 11.4722C17.8896 11.7992 18.739 12.7599 19.0073 13.8126L29.5208 16.9802L19.795 7.67287C19.3617 7.84843 18.8484 7.86203 18.3375 7.70192C17.0694 7.30443 16.0764 5.98029 16.0764 4.68643C16.0764 4.50716 16.0953 4.33469 16.1338 4.16901L14.6244 2.72494C13.8862 2.16301 13.063 1.8533 12.3034 1.8533C11.9789 1.8533 11.6856 1.91018 11.4319 2.02207ZM4.87106 15.5392C3.93056 15.245 3.19356 14.2602 3.19356 13.2971C3.19356 12.4001 3.81994 11.7485 4.68344 11.7485C4.86372 11.7485 5.04889 11.7776 5.23283 11.8357C6.17333 12.1312 6.90972 13.116 6.90972 14.0785C6.90972 14.9754 6.28394 15.6264 5.42106 15.6264C5.24078 15.6258 5.05561 15.5973 4.87106 15.5392ZM7.86306 25.0147C8.09833 25.0883 8.333 25.126 8.56094 25.126C9.62733 25.126 10.401 24.318 10.401 23.2059C10.401 21.9603 9.44461 20.6844 8.22483 20.3029C7.98955 20.2294 7.75489 20.1917 7.52694 20.1917C6.46117 20.1917 5.68689 20.999 5.68689 22.1124C5.68689 23.3574 6.64328 24.6327 7.86306 25.0147ZM14.8193 23.5008C14.5199 23.5008 14.2107 23.4513 13.9002 23.3543C12.26 22.8406 10.9761 21.1294 10.9761 19.4597C10.9761 19.0295 11.0744 18.6419 11.2364 18.2994C11.2396 18.2907 11.2412 18.2815 11.2427 18.2722C11.2448 18.2603 11.2468 18.2484 11.2523 18.2376C11.2641 18.2137 11.2787 18.1921 11.2932 18.1705C11.3035 18.1552 11.3138 18.14 11.3232 18.1238C11.3525 18.0725 11.3831 18.0237 11.4161 17.9755C11.4643 17.9056 11.5157 17.8395 11.5707 17.7764C11.6183 17.7208 11.6672 17.6676 11.7192 17.6176C11.7595 17.5798 11.8017 17.5452 11.8444 17.5106C11.9233 17.4457 12.0039 17.3845 12.0913 17.3307L12.1041 17.3236L12.1178 17.3163L12.1268 17.3116C12.4769 17.1045 12.8858 16.9802 13.3417 16.9802C13.6411 16.9802 13.9503 17.0297 14.2608 17.1267C14.4368 17.1817 14.6091 17.2565 14.7784 17.3406C14.8402 17.3707 14.8999 17.4041 14.96 17.4377L14.9721 17.4445C15.0681 17.4989 15.1616 17.5576 15.2538 17.62L15.2914 17.6452C15.3552 17.6878 15.4186 17.7301 15.4799 17.7777C15.5272 17.8146 15.5721 17.8545 15.6171 17.8945C15.6339 17.9094 15.6507 17.9243 15.6676 17.939C15.8179 18.0688 15.9584 18.2073 16.0911 18.3563L16.1044 18.3712C16.1464 18.4181 16.1882 18.4648 16.2279 18.5139C16.3001 18.6036 16.3679 18.6944 16.4333 18.7884C16.4773 18.8513 16.5173 18.9159 16.5577 18.9811L16.5628 18.9893L16.5875 19.0291C16.6357 19.1065 16.6836 19.1836 16.7254 19.2644C16.8036 19.4134 16.8733 19.5667 16.9332 19.7231V19.7249C17.0921 20.1453 17.1843 20.5836 17.1843 21.02C17.1862 22.4579 16.1907 23.5008 14.8193 23.5008ZM20.6224 18.4768C20.4495 18.4224 20.2753 18.3946 20.1054 18.3946C19.289 18.3946 18.6962 19.0109 18.6956 19.8597C18.6956 20.7585 19.3831 21.6784 20.2607 21.9529C20.4336 22.0073 20.6084 22.0351 20.7777 22.0351C21.5947 22.0351 22.1875 21.4188 22.1875 20.5706C22.1875 19.6712 21.5 18.7513 20.6224 18.4768ZM21.2134 29.384C21.0435 29.384 20.8693 29.3562 20.6964 29.3018C19.8188 29.0273 19.1313 28.1075 19.1313 27.208C19.1313 26.3599 19.7241 25.7436 20.5412 25.7436C20.7104 25.7436 20.8852 25.7714 21.0582 25.8258C21.9357 26.1003 22.6232 27.0201 22.6232 27.9189C22.6232 28.7677 22.0304 29.384 21.2134 29.384ZM24.9742 26.2511C25.2094 26.3247 25.4441 26.3624 25.6721 26.3624C26.7384 26.3624 27.5121 25.5544 27.5121 24.4423C27.5121 23.1967 26.5557 21.9207 25.3359 21.5393C25.1007 21.4657 24.866 21.428 24.6381 21.428C23.5723 21.428 22.798 22.2354 22.798 23.3487C22.798 24.5937 23.7544 25.8691 24.9742 26.2511Z" fill="currentColor"/>
</svg>
