<svg width="32" height="36" viewBox="0 0 32 36" fill="none" xmlns="http://www.w3.org/2000/svg">
<path fill-rule="evenodd" clip-rule="evenodd" d="M11.7396 24.9915C11.6584 24.9726 11.585 24.9486 11.5209 24.9202C8.20511 24.4279 4.90816 22.4273 2.63725 19.1694C-1.36166 13.4315 -0.662556 5.9806 4.199 2.52704C9.06055 -0.926523 16.2433 0.925168 20.2416 6.66242C22.2457 9.53726 23.0686 12.842 22.7809 15.859C22.8019 15.9421 22.8173 16.033 22.8206 16.1406C22.8637 17.6555 23.1426 20.2644 24.4388 22.1406C24.822 22.6954 24.8303 23.432 24.3349 23.8869L21.133 26.8265C20.6376 27.2815 19.8479 27.2959 19.2216 27.0562C18.1668 26.6525 16.0345 26.0024 11.7396 24.9915ZM20.2449 14.8906C19.1056 9.81054 17.0695 5.26805 11.8429 3.53345C10.1469 2.97091 9.30358 5.62604 10.9935 6.18693C15.2536 7.60092 16.6342 11.4158 17.5477 15.4889C17.9409 17.2419 20.6382 16.6447 20.2449 14.8906Z" fill="currentColor"/>
<path fill-rule="evenodd" clip-rule="evenodd" d="M26.5671 25.9679C27.1127 25.6189 27.7418 25.4304 28.4039 25.4248C30.3457 25.4087 31.9384 26.9905 31.9538 28.9508C31.9676 30.6336 30.6698 31.7961 29.1141 32.1747C28.738 33.7158 27.5026 35.1359 25.8712 35.1493C23.9295 35.1655 22.3368 33.5837 22.3207 31.6233C22.3152 30.8979 22.5306 30.1998 22.9299 29.6104L21.8679 28.555L25.4598 24.8678L26.5671 25.9679ZM27.4038 30.4446L28.4431 30.6983C29.3858 30.6905 30.143 29.9138 30.1358 28.9653C30.1281 28.018 29.3576 27.2529 28.4194 27.2608C27.9488 27.2647 27.5098 27.4643 27.1839 27.8228L26.5472 28.5237L25.4813 27.4649L24.4409 28.5337L25.5438 29.6288L24.7678 30.2773C24.3652 30.6141 24.1366 31.0986 24.141 31.6082C24.1488 32.5555 24.9186 33.3205 25.8575 33.3127C26.7781 33.3055 27.5335 32.541 27.5413 31.6088L27.4038 30.4446Z" fill="currentColor"/>
</svg>
