<svg width="13" height="12" viewBox="0 0 13 12" fill="none" xmlns="http://www.w3.org/2000/svg">
<path d="M11.929 1.07102C11.8342 0.976365 11.6807 0.976286 11.5859 1.07102L9.07107 3.58593C8.97631 3.68067 8.97631 3.83421 9.07105 3.92898C9.11843 3.97634 9.18048 4 9.24258 4C9.30462 4 9.36672 3.97634 9.4141 3.92898L11.929 1.41407C12.0237 1.31931 12.0237 1.16574 11.929 1.07102Z" fill="currentColor"/>
<path d="M11.9289 1.07101C11.8342 0.976329 11.6806 0.976329 11.5859 1.07101L9.07103 3.58594C8.97633 3.6807 8.97633 3.83424 9.07101 3.92898C9.11839 3.97634 9.18049 4 9.24254 4C9.30459 4 9.36669 3.97634 9.41407 3.92898L11.9289 1.41403C12.0237 1.31929 12.0237 1.16572 11.9289 1.07101Z" fill="currentColor"/>
<path fill-rule="evenodd" clip-rule="evenodd" d="M12.9333 2.38955L10.0045 5.32672C9.54897 5.78343 8.87246 5.93141 8.27457 5.71897L7.53665 6.55273L11.3083 9.9099C11.3337 9.93167 11.3568 9.95289 11.3786 9.9748C11.8398 10.4374 11.8398 11.1902 11.3784 11.653C11.1477 11.8843 10.8447 12 10.5416 12C10.2386 12 9.93552 11.8843 9.70483 11.653C9.68312 11.6313 9.66196 11.6082 9.64025 11.5827L6.36251 7.87929L3.08482 11.5826C3.06309 11.6081 3.04193 11.6312 3.02007 11.6531C2.7895 11.8843 2.48641 12 2.18345 12C1.88036 12 1.57734 11.8843 1.3466 11.6529C1.12308 11.4288 1 11.1307 1 10.8138C1 10.4968 1.12311 10.1988 1.34662 9.9746C1.36806 9.95309 1.39105 9.93182 1.41674 9.90985L4.104 7.51794C4.19795 7.43422 4.3418 7.44283 4.42523 7.53712C4.50864 7.63136 4.5001 7.77559 4.4061 7.85926L1.71706 10.2528L1.7133 10.256C1.69649 10.2704 1.68189 10.2837 1.66867 10.2971C1.53086 10.4353 1.4551 10.6187 1.4551 10.8138C1.4551 11.0089 1.53086 11.1923 1.66842 11.3302C1.95231 11.615 2.41439 11.615 2.6984 11.3302C2.71196 11.3166 2.72535 11.3019 2.73953 11.2852L2.74277 11.2815L7.04405 6.42175L7.04514 6.42039L7.04638 6.41915L8.04155 5.29472C8.1089 5.21863 8.21824 5.19646 8.30982 5.24029C8.77014 5.46075 9.32187 5.36581 9.6827 5.00398L12.6115 2.06682C12.7004 1.97769 12.8444 1.97776 12.9333 2.06682C13.0222 2.15595 13.0222 2.3004 12.9333 2.38955ZM11.0117 10.256L11.008 10.2528L7.23448 6.89403L6.66674 7.53551L9.98218 11.2814L9.98542 11.2852C9.9996 11.3019 10.013 11.3166 10.0265 11.3301C10.3106 11.6149 10.7726 11.6149 11.0566 11.3302C11.3406 11.0454 11.3406 10.5821 11.0566 10.2973C11.043 10.2837 11.0284 10.2703 11.0117 10.256Z" fill="currentColor"/>
<path fill-rule="evenodd" clip-rule="evenodd" d="M10.5985 0.0684372C10.6904 -0.0228124 10.8392 -0.0228124 10.9311 0.0684372C11.023 0.159738 11.023 0.30771 10.9311 0.399036L7.9044 3.40776C7.53151 3.77837 7.43365 4.34509 7.66088 4.81802C7.70602 4.91204 7.68318 5.02442 7.60479 5.0936L5.51089 6.94107C5.46611 6.98058 5.4104 7 5.35487 7C5.28996 7 5.22537 6.97348 5.1789 6.92144L4.29242 5.92865C3.38152 6.38884 2.27562 6.22086 1.5412 5.49076C0.811738 4.76572 0.298457 3.92589 0.0958347 3.12605C-0.115662 2.29107 0.0255233 1.57506 0.493431 1.10996C0.961338 0.644868 1.68154 0.504549 2.52157 0.714736C3.32625 0.916125 4.17111 1.42638 4.90052 2.15144C5.63494 2.88151 5.80393 3.98086 5.34101 4.88628L6.23616 5.67608L7.16755 4.8543C6.94863 4.23999 7.10107 3.5451 7.57184 3.07718L10.5985 0.0684372ZM4.51853 5.47764L5.37454 6.43631L5.88186 5.98863L4.88722 5.11106C4.80182 5.03568 4.78322 4.91018 4.84318 4.81354C5.30812 4.06407 5.19496 3.1053 4.56791 2.48201C3.89774 1.81578 3.1302 1.34919 2.4067 1.16811C1.73361 0.999646 1.1722 1.09636 0.82601 1.44056C0.479773 1.78471 0.382426 2.34279 0.551875 3.01189C0.73406 3.73108 1.20348 4.494 1.8737 5.16021C2.50075 5.78355 3.46526 5.896 4.21922 5.43386C4.31641 5.37419 4.44271 5.39275 4.51853 5.47764Z" fill="currentColor"/>
</svg>
