<svg width="20" height="16" viewBox="0 0 20 16" fill="none" xmlns="http://www.w3.org/2000/svg">
<mask id="mask0_347_840" style="mask-type:luminance" maskUnits="userSpaceOnUse" x="0" y="0" width="20" height="16">
<path fill-rule="evenodd" clip-rule="evenodd" d="M0 0H20V16H0V0Z" fill="currentColor"/>
</mask>
<g>
<path fill-rule="evenodd" clip-rule="evenodd" d="M9.99903 3.28205L2.86873 9.16962C2.86873 9.17782 2.8674 9.19039 2.86283 9.20678C2.85922 9.22317 2.85693 9.23498 2.85693 9.24394V15.2051C2.85693 15.4202 2.93494 15.6063 3.09247 15.7633C3.24925 15.9211 3.43513 16 3.64993 16H8.41228V11.2305H11.5873V16H16.3489C16.5637 16 16.7496 15.9211 16.9063 15.7641C17.0639 15.6071 17.1426 15.4202 17.1426 15.2051V9.24394C17.1426 9.2104 17.1381 9.18582 17.1301 9.16962L9.99903 3.28205Z" fill="currentColor"/>
<path fill-rule="evenodd" clip-rule="evenodd" d="M19.8616 7.81013L17.145 5.5358V0.437304C17.145 0.320549 17.1079 0.224691 17.0335 0.14973C16.9591 0.0749609 16.8639 0.0375763 16.748 0.0375763H14.3666C14.2507 0.0375763 14.1555 0.0749609 14.0811 0.14973C14.0069 0.224691 13.9696 0.320549 13.9696 0.437304V2.87421L10.943 0.32515C10.6782 0.108703 10.3638 0 10.0003 0C9.63599 0 9.32214 0.108703 9.05758 0.32515L0.137438 7.81013C0.0548357 7.87684 0.00953742 7.96599 0.00135328 8.07834C-0.00683086 8.19068 0.0220991 8.28884 0.0883336 8.37262L0.857072 9.29669C0.923306 9.37165 1.01029 9.41805 1.11725 9.43453C1.21698 9.44278 1.31653 9.41364 1.4155 9.34692L9.99952 2.13667L18.5845 9.34692C18.6505 9.40539 18.7375 9.43453 18.8447 9.43453H18.8825C18.9895 9.41805 19.0759 9.37165 19.1427 9.29669L19.9122 8.37185C19.9777 8.28884 20.0074 8.19068 19.9984 8.07834C19.9903 7.96599 19.9442 7.87684 19.8616 7.81013Z" fill="currentColor"/>
</g>
</svg>
