<svg width="20" height="15" viewBox="0 0 20 15" fill="none" xmlns="http://www.w3.org/2000/svg">
<path fill-rule="evenodd" clip-rule="evenodd" d="M19.2159 4.42885L19.2264 4.45548L19.2358 4.47932C19.7522 5.78454 20.766 8.34697 18.9407 9.06934C19.5621 9.43954 19.973 10.0074 19.973 10.6061C19.973 11.2049 19.5621 11.6908 18.9396 11.9353C19.5621 12.3065 19.9729 12.8743 19.9729 13.474C19.9729 14.424 18.9414 15.0895 17.6709 14.9609L3.85438 13.5638L0.782623 13.2535C0.358424 13.2106 0.0141602 12.9191 0.0141602 12.6028V4.57495C0.0141602 4.39932 0.0998961 4.30046 0.219506 4.23864C0.325286 4.18396 0.459181 4.1582 0.585965 4.13381L0.585985 4.13381C0.629146 4.12551 0.671483 4.11736 0.711606 4.10829C0.890848 4.06775 3.96022 3.38252 7.27063 2.64479C7.31057 2.76791 7.35643 2.88956 7.40862 3.00942C7.62085 3.49694 7.92444 3.93449 8.31089 4.30995C8.69739 4.68539 9.14775 4.98031 9.64957 5.18651C10.1698 5.40026 10.7216 5.50864 11.2897 5.50864C11.8579 5.50864 12.4097 5.40026 12.9299 5.18651C13.4317 4.98033 13.8821 4.68539 14.2686 4.30995C14.655 3.93447 14.9586 3.49694 15.1708 3.00942C15.3909 2.50405 15.5024 1.96793 15.5024 1.41598C15.5024 1.21714 15.4877 1.0204 15.4589 0.826375C15.5747 0.801205 15.6414 0.787053 15.6518 0.785518C16.45 0.667108 17.3516 1.17342 17.8325 1.75807C18.4624 2.52399 18.857 3.52163 19.2159 4.42885ZM1.63749 12.0341L15.1813 13.4041C16.4519 13.5329 17.4832 13.3413 17.4832 12.978C17.4832 12.6149 16.4519 12.2167 15.1813 12.0879L1.63749 10.7189V12.0341ZM15.1813 10.7827L1.63749 9.41265V8.09643L15.1813 9.46751C16.4519 9.59627 17.4832 9.99435 17.4832 10.3576C17.4832 10.7208 16.4519 10.9115 15.1813 10.7827ZM1.63749 6.7922L15.1813 8.16135C16.4519 8.29 17.4832 8.10045 17.4832 7.73616C17.4832 7.37302 16.4519 6.97378 15.1813 6.84513L1.63749 5.47598V6.7922Z" fill="currentColor"/>
</svg>
