<svg width="22" height="17" viewBox="0 0 22 17" fill="none" xmlns="http://www.w3.org/2000/svg">
<path d="M12.1615 7.44233H14.4835C16.4302 6.41269 17.1596 4.55443 17.4153 3.59933C17.502 3.27193 17.2769 2.94678 16.9298 2.89937C13.9112 2.48165 12.3914 3.29225 11.3242 4.92247C11.3993 5.0941 11.472 5.26794 11.5424 5.44408C11.7042 5.85728 11.8097 6.34725 11.8613 6.81238C13.3225 6.01308 14.5844 5.00378 15.037 4.71477C14.7063 5.06247 13.794 6.13724 12.1615 7.44233Z" fill="currentColor"/>
<path d="M0.00977689 0.968836C0.270118 2.31682 1.30679 5.91822 5.11106 7.44233H9.6682C8.22811 4.9157 5.6247 3.67384 4.46138 2.98743C5.34794 3.14322 8.08973 4.04866 10.5899 6.55722C10.7823 6.7514 11.174 7.16009 11.1857 7.15557C10.9019 3.20419 7.09762 0.000183105 3.07521 0.000183105C2.25669 0.000183105 1.38185 0.10179 0.448346 0.318551C0.145788 0.388547 -0.0465365 0.675305 0.00977689 0.968836Z" fill="currentColor"/>
<path d="M21.9959 8.68419C21.9959 8.37257 21.7332 8.11971 21.4095 8.11971H3.33342C3.00976 8.11971 2.74707 8.37257 2.74707 8.68419V8.75193C2.74707 13.2949 6.57247 16.9753 11.2891 16.9753H13.4515C18.1705 16.9753 21.9936 13.2926 21.9936 8.75193V8.68419H21.9959Z" fill="currentColor"/>
</svg>
