<svg width="16" height="23" viewBox="0 0 16 23" fill="none" xmlns="http://www.w3.org/2000/svg">
<path d="M1.36865 7.32153V7.32153L2.54342 22.3797C2.57076 22.73 2.85687 23 3.2007 23H11.6557C11.9996 23 12.2857 22.73 12.313 22.3797L13.4878 7.32153L1.36865 7.32153Z" fill="currentColor"/>
<path d="M15.3198 0H13.568C13.3361 0 13.1213 0.124479 13.0022 0.32784L11.3224 3.19682H0.680337C0.316205 3.19682 0.0209961 3.49852 0.0209961 3.87065V5.97385H1.33968V5.97389H13.5163H14.835V3.87069C14.835 3.49856 14.5398 3.19687 14.1756 3.19687H12.8592L13.0039 2.94962L13.9418 1.34766H14.6341H15.3198C15.6839 1.34766 15.9792 1.04596 15.9792 0.673828C15.9792 0.301695 15.6839 0 15.3198 0Z" fill="currentColor"/>
</svg>
