<svg width="21" height="23" viewBox="0 0 21 23" fill="none" xmlns="http://www.w3.org/2000/svg">
<path fill-rule="evenodd" clip-rule="evenodd" d="M1.95605 12.0362C1.95605 13.4943 2.32117 14.8642 2.96262 16.0621L9.6874 12.1651L2.86192 8.2086C2.28394 9.35956 1.95605 10.6586 1.95605 12.0362ZM4.0866 14.1436C3.8723 14.2447 3.64512 14.3103 3.41746 14.3683C3.31485 14.3946 3.0409 14.4411 2.99985 14.2878C2.96071 14.1383 3.21987 14.0353 3.32058 14.0089C3.48667 13.9677 3.64321 13.9246 3.79785 13.8498C3.92099 13.7919 4.17251 13.7396 4.28467 13.8537C4.40399 13.9754 4.16678 14.1062 4.0866 14.1436ZM7.00274 11.501C7.32155 11.501 7.5788 11.7611 7.5788 12.0812C7.5788 12.4013 7.32155 12.6596 7.00274 12.6596C6.68392 12.6596 6.42476 12.4013 6.42476 12.0812C6.42476 11.7611 6.68392 11.501 7.00274 11.501ZM5.41055 12.3711C5.41055 12.8522 5.0211 13.2418 4.54192 13.2418C4.06274 13.2418 3.67471 12.8522 3.67471 12.3711C3.67471 11.89 4.06274 11.501 4.54192 11.501C5.0211 11.501 5.41055 11.89 5.41055 12.3711ZM3.67471 9.36531C3.99353 9.36531 4.25269 9.6255 4.25269 9.94558C4.25269 10.2657 3.99353 10.5239 3.67471 10.5239C3.3559 10.5239 3.09865 10.2657 3.09865 9.94558C3.09865 9.6255 3.3559 9.36531 3.67471 9.36531ZM2.59703 11.8771C2.10115 11.8771 2.66242 11.5177 2.89915 11.5177C3.39503 11.5177 2.83424 11.8771 2.59703 11.8771Z" fill="currentColor"/>
<path fill-rule="evenodd" clip-rule="evenodd" d="M10.0698 3.08727V1.5525C6.47495 1.68331 3.33736 3.64502 1.55713 6.53679L2.8787 7.3025C4.39452 4.86929 7.03813 3.21473 10.0698 3.08727Z" fill="currentColor"/>
<path fill-rule="evenodd" clip-rule="evenodd" d="M18.7887 6.15346L20.1127 5.38583C18.332 2.49598 15.1944 0.53427 11.5981 0.403458V1.93631C14.6293 2.06521 17.2729 3.71977 18.7887 6.15346Z" fill="currentColor"/>
<path fill-rule="evenodd" clip-rule="evenodd" d="M19.2574 17.6813L17.9334 16.9141C16.4047 19.2687 13.806 20.8615 10.834 20.987V22.5218C14.3706 22.3924 17.4619 20.4925 19.2574 17.6813Z" fill="currentColor"/>
<mask id="mask0_0_363" style="mask-type:luminance" maskUnits="userSpaceOnUse" x="0" y="7" width="21" height="11">
<path fill-rule="evenodd" clip-rule="evenodd" d="M0.0288086 7.20331H20.9033V17.0224H0.0288086V7.20331Z" fill="currentColor"/>
</mask>
<g mask="url(#mask0_0_363)">
<path fill-rule="evenodd" clip-rule="evenodd" d="M18.4015 7.97093C19.0239 9.19281 19.3766 10.5742 19.3766 12.0362C19.3766 13.5619 18.9943 14.9974 18.3232 16.2552L19.6467 17.0224C20.4485 15.5384 20.9034 13.8407 20.9034 12.0362C20.9034 10.2954 20.4762 8.65183 19.725 7.20331L18.4015 7.97093Z" fill="currentColor"/>
<path fill-rule="evenodd" clip-rule="evenodd" d="M2.58014 16.2552C1.90909 14.9974 1.5268 13.5619 1.5268 12.0362C1.5268 10.5742 1.88093 9.19281 2.50377 7.97093L1.1803 7.20331C0.427159 8.65039 0 10.2935 0 12.0362C0 13.8407 0.454841 15.5384 1.25666 17.0224L2.58014 16.2552Z" fill="currentColor"/>
</g>
<path fill-rule="evenodd" clip-rule="evenodd" d="M10.0699 22.5218V20.987C7.09794 20.8615 4.49919 19.2687 2.97239 16.9141L1.64844 17.6813C3.44203 20.4925 6.53476 22.3924 10.0699 22.5218Z" fill="currentColor"/>
<path fill-rule="evenodd" clip-rule="evenodd" d="M10.0699 3.51804C7.18382 3.64502 4.6705 5.221 3.23486 7.53825L10.0699 11.501V3.51804ZM5.85795 7.77592C5.38068 7.77592 4.99123 7.38684 4.99123 6.90575C4.99123 6.42467 5.38068 6.03559 5.85795 6.03559C6.33714 6.03559 6.72707 6.42467 6.72707 6.90575C6.72707 7.38684 6.33714 7.77592 5.85795 7.77592ZM8.44764 9.36531C8.12882 9.36531 7.86966 9.10704 7.86966 8.78696C7.86966 8.46688 8.12882 8.20861 8.44764 8.20861C8.76645 8.20861 9.0237 8.46688 9.0237 8.78696C9.0237 9.10704 8.76645 9.36531 8.44764 9.36531ZM8.42329 7.21098C8.31352 7.07394 8.19039 7.00302 8.02286 6.95798C7.85486 6.9115 7.82336 6.73373 7.92932 6.61011C8.05627 6.46779 8.27248 6.42083 8.45145 6.46971C8.71061 6.54063 8.93064 6.67719 9.10007 6.88898C9.33154 7.17504 8.62852 7.4635 8.42329 7.21098ZM8.71443 5.83529C8.39561 5.83529 8.13836 5.57511 8.13836 5.25502C8.13836 4.93494 8.39561 4.67667 8.71443 4.67667C9.03325 4.67667 9.29241 4.93494 9.29241 5.25502C9.29241 5.57511 9.03325 5.83529 8.71443 5.83529Z" fill="currentColor"/>
<path fill-rule="evenodd" clip-rule="evenodd" d="M18.9477 12.0362C18.9477 10.6586 18.6198 9.35956 18.0437 8.2086L11.2163 12.1651L17.943 16.0641C18.5844 14.8642 18.9477 13.4943 18.9477 12.0362ZM17.7936 9.5656C18.2876 9.5656 17.7044 9.90054 17.4843 9.90054C16.9923 9.89862 17.5755 9.5656 17.7936 9.5656ZM14.1916 12.7156C13.8747 12.7156 13.6156 12.4555 13.6156 12.1354C13.6156 11.8153 13.8747 11.557 14.1916 11.557C14.5104 11.557 14.7696 11.8153 14.7696 12.1354C14.7696 12.4555 14.5104 12.7156 14.1916 12.7156ZM15.7786 11.5474C16.1399 11.5474 15.4521 11.8455 15.2994 11.8455C14.9395 11.8469 15.6273 11.5474 15.7786 11.5474ZM15.4464 13.4531C14.9486 13.4531 15.4373 13.0094 15.728 13.0094C16.2277 13.0075 15.7375 13.4531 15.4464 13.4531ZM16.9679 14.9054C16.6491 14.9054 16.3899 14.6452 16.3899 14.3252C16.3899 14.0051 16.6491 13.7468 16.9679 13.7468C17.2867 13.7468 17.544 14.0051 17.544 14.3252C17.544 14.6452 17.2867 14.9054 16.9679 14.9054ZM17.2586 12.6165C16.7794 12.6165 16.3899 12.225 16.3899 11.7444C16.3899 11.2633 16.7794 10.8737 17.2586 10.8737C17.7378 10.8737 18.1258 11.2633 18.1258 11.7444C18.1258 12.225 17.7359 12.6165 17.2586 12.6165Z" fill="currentColor"/>
<path fill-rule="evenodd" clip-rule="evenodd" d="M10.0697 20.5563V12.8278L3.354 16.721C4.80825 18.9371 7.26191 20.4307 10.0697 20.5563ZM8.85219 19.9386C8.3563 19.9386 8.89705 19.5548 9.14857 19.5548C9.64637 19.5548 9.10562 19.9386 8.85219 19.9386ZM8.71425 14.9054C9.03307 14.9054 9.29223 15.1637 9.29223 15.4838C9.29223 15.8039 9.03307 16.0621 8.71425 16.0621C8.39544 16.0621 8.13819 15.8039 8.13819 15.4838C8.13819 15.1637 8.39544 14.9054 8.71425 14.9054ZM7.22994 16.2605C7.72964 16.2605 7.25237 16.7172 6.95216 16.7172C6.45437 16.7172 6.93021 16.2605 7.22994 16.2605ZM7.57882 17.0224C8.058 17.0224 8.44746 17.412 8.44746 17.893C8.44746 18.3741 8.058 18.7651 7.57882 18.7651C7.09964 18.7651 6.71162 18.3741 6.71162 17.893C6.71162 17.412 7.09964 17.0224 7.57882 17.0224ZM5.11991 16.3544C5.43873 16.3544 5.69598 16.6146 5.69598 16.9347C5.69598 17.2548 5.43873 17.5131 5.11991 17.5131C4.80109 17.5131 4.54194 17.2548 4.54194 16.9347C4.54194 16.6146 4.80109 16.3544 5.11991 16.3544Z" fill="currentColor"/>
<path fill-rule="evenodd" clip-rule="evenodd" d="M17.5511 16.721L10.834 12.8278V20.5563C13.6437 20.4307 16.0973 18.9371 17.5511 16.721ZM12.0758 19.3435C11.757 19.3435 11.4979 19.0852 11.4979 18.7651C11.4979 18.445 11.757 18.1849 12.0758 18.1849C12.3947 18.1849 12.6519 18.445 12.6519 18.7651C12.6519 19.0852 12.3947 19.3435 12.0758 19.3435ZM12.4653 16.9347C11.9861 16.9347 11.5986 16.5451 11.5986 16.0641C11.5986 15.583 11.9861 15.1939 12.4653 15.1939C12.9445 15.1939 13.3325 15.583 13.3325 16.0641C13.3325 16.5451 12.9445 16.9347 12.4653 16.9347ZM13.3435 18.2165C12.9836 18.2165 13.6733 17.9228 13.8227 17.9228C14.1806 17.9228 13.4929 18.2165 13.3435 18.2165ZM15.5227 17.6027C15.2039 17.6027 14.9447 17.3425 14.9447 17.0224C14.9447 16.7023 15.2039 16.444 15.5227 16.444C15.8415 16.444 16.1007 16.7023 16.1007 17.0224C16.1007 17.3425 15.8415 17.6027 15.5227 17.6027Z" fill="currentColor"/>
<path fill-rule="evenodd" clip-rule="evenodd" d="M11.5981 2.36852V10.3514L18.4327 6.38921C16.9971 4.07196 14.4842 2.49598 11.5981 2.36852ZM13.8093 3.51804C14.1282 3.51804 14.3873 3.77631 14.3873 4.0964C14.3873 4.41648 14.1282 4.67667 13.8093 4.67667C13.4905 4.67667 13.2333 4.41648 13.2333 4.0964C13.2333 3.77631 13.4905 3.51804 13.8093 3.51804ZM12.5732 2.97515C13.071 2.97515 12.6162 3.45623 12.3007 3.45623C11.8029 3.45623 12.2582 2.97515 12.5732 2.97515ZM12.9421 8.38063C12.463 8.38063 12.0754 7.98963 12.0754 7.51046C12.0754 7.02938 12.463 6.6379 12.9421 6.6379C13.4213 6.6379 13.8093 7.02938 13.8093 7.51046C13.8093 7.98963 13.4213 8.38063 12.9421 8.38063ZM13.8313 5.796C13.6862 5.91196 13.4586 5.94359 13.3001 5.83529C13.1378 5.72269 12.9331 5.6949 12.7426 5.65704C12.5823 5.62542 12.4334 5.49988 12.5116 5.32019C12.5842 5.152 12.8138 5.05281 12.9908 5.08827C13.2963 5.14817 13.6022 5.20806 13.8633 5.38967C14.0198 5.49652 13.9563 5.69634 13.8313 5.796ZM14.3071 7.153C13.8093 7.153 14.2527 6.6585 14.5754 6.6585C15.0751 6.6585 14.6312 7.153 14.3071 7.153ZM15.5223 6.34609C15.2035 6.34609 14.9443 6.08781 14.9443 5.76773C14.9443 5.44765 15.2035 5.18938 15.5223 5.18938C15.8411 5.18938 16.1003 5.44765 16.1003 5.76773C16.1003 6.08781 15.8411 6.34609 15.5223 6.34609ZM16.5403 6.09548C16.1804 6.09548 16.8706 5.79936 17.0195 5.79936C17.3793 5.79936 16.6897 6.09548 16.5403 6.09548Z" fill="currentColor"/>
</svg>
