<svg width="23" height="19" viewBox="0 0 23 19" fill="none" xmlns="http://www.w3.org/2000/svg">
<path fill-rule="evenodd" clip-rule="evenodd" d="M22.8138 12.67C22.8138 11.1315 19.3334 10.3875 17.2588 10.081C17.1687 10.0672 17.0813 10.0942 17.0142 10.1474C16.6378 9.63272 16.2128 9.21775 15.7547 9.04895C15.4396 8.93247 15.1189 8.94073 14.7994 9.03298C14.7926 8.61388 14.683 7.74539 13.9413 7.26268C12.9405 6.61172 11.5583 7.83873 11.497 7.89408C11.477 7.91308 11.4023 7.9844 11.2889 8.09812C11.2865 8.09752 11.2842 8.09648 11.2819 8.09544C11.2791 8.09412 11.2762 8.0928 11.273 8.09234C10.2564 7.93539 9.31965 7.97091 8.48974 8.19753C7.18367 8.55412 6.18481 8.99085 5.33874 9.63382L5.38364 7.71317C7.05388 7.06854 8.20087 4.6247 8.20087 1.64033C8.20087 0.786979 6.25463 0.259109 4.45159 0.259109C0.6785 0.259109 0.385524 1.3165 0.385524 1.64033C0.385524 2.59583 0.509833 3.48498 0.739012 4.27527C0.734631 4.30005 0.734083 4.32539 0.742024 4.35072C0.74394 4.35705 0.787202 4.48923 0.874274 4.69465C1.05033 5.19195 1.27102 5.64244 1.53032 6.03897C1.53799 6.06044 1.54949 6.08082 1.56674 6.09817C1.56792 6.09935 1.56925 6.10006 1.57058 6.10076C1.57172 6.10136 1.57285 6.10196 1.57386 6.10285C1.6664 6.23998 1.76333 6.3705 1.86519 6.49331L1.8701 6.50174C1.87434 6.50923 1.87854 6.51665 1.8849 6.52305C1.88714 6.5253 1.88985 6.5268 1.89259 6.52832C1.89454 6.5294 1.8965 6.53049 1.89832 6.53186C2.38351 7.10462 2.96782 7.51573 3.62935 7.71812L3.57513 10.4596C1.91913 10.852 0.19906 11.5008 0.0405238 12.5169C0.0153333 12.5626 0 12.6143 0 12.67V14.0322C0 14.0337 0.000205099 14.0352 0.000410327 14.0367L0.000410714 14.0367C0.000616071 14.0382 0.000821429 14.0398 0.000821429 14.0413C0.000821429 14.0429 0.000616308 14.0444 0.00041107 14.0459L0.000410714 14.046L0.000410359 14.046C0.00020512 14.0475 0 14.049 0 14.0506C0 14.8701 1.0287 15.55 3.05818 16.0743C3.06256 16.1448 3.08857 16.2144 3.1395 16.2709C4.54606 17.825 7.88654 18.8293 11.6498 18.8293C15.7859 18.8293 19.3145 17.6422 20.4686 15.8702C22.0244 15.3776 22.8124 14.7677 22.8124 14.0509L22.8122 14.0479C22.8123 14.0459 22.8125 14.0439 22.8128 14.0419C22.8133 14.0388 22.8138 14.0357 22.8138 14.0325V12.67ZM22.172 12.67C22.172 13.4459 19.5908 14.4642 15.1937 14.8511C15.3476 14.7509 15.4826 14.633 15.5924 14.4929C15.6184 14.4598 15.6422 14.4259 15.6652 14.3915C17.3697 14.2021 20.1245 13.7477 20.1245 12.7933C20.1245 12.2977 19.3772 11.8799 17.9039 11.5514C17.8825 11.5468 17.8617 11.547 17.8414 11.5506C17.7116 11.2857 17.569 11.0172 17.4151 10.7581C20.6803 11.2703 22.172 12.1013 22.172 12.67ZM15.5721 11.3537C15.6876 11.6374 15.8596 12.1231 15.9387 12.6581C16.0707 12.4296 16.0759 12.1561 16.0734 12.0653C15.8782 11.7092 15.7011 11.4487 15.5721 11.3537ZM16.3273 12.5606C16.3577 12.6234 16.388 12.6873 16.4187 12.7526C16.3579 12.8663 16.2076 13.1122 15.9801 13.2639C15.9812 13.2094 15.9809 13.1546 15.9792 13.1001C16.166 12.9489 16.2703 12.749 16.3273 12.5606ZM16.5789 13.105C16.4475 13.2945 16.2375 13.5288 15.9469 13.6439C15.9245 13.7819 15.8897 13.9168 15.8407 14.0468C16.2257 14.0011 16.5805 13.9509 16.9069 13.8973C16.8037 13.6315 16.6928 13.3633 16.5789 13.105ZM15.5661 10.9993C15.1642 10.9121 14.8256 11.269 14.4673 11.6467L14.467 11.647L14.4668 11.6472C14.2122 11.9153 13.9237 12.2192 13.5952 12.3844C13.5733 12.3954 13.556 12.4114 13.5418 12.4296C13.4293 12.3646 13.3093 12.3026 13.1776 12.2456C13.547 12.0264 13.955 11.6385 14.3525 11.2585L14.3558 11.2554C14.746 10.8827 15.1871 10.4615 15.3845 10.4293C15.6748 10.488 16.626 12.1961 17.3809 13.8133L17.3449 13.8201L17.3449 13.8201L17.3448 13.8201L17.3447 13.8201L17.3446 13.8202C17.3071 13.8273 17.2693 13.8345 17.2306 13.8414C16.9327 13.0668 16.1331 11.1216 15.5661 10.9993ZM14.4889 13.5822C14.55 13.599 14.6524 13.615 14.7603 13.5756C14.9007 13.5244 15.0193 13.3936 15.1129 13.1871C15.1277 13.1541 15.1534 13.1312 15.1825 13.115C15.1811 13.0483 15.1773 12.9822 15.171 12.9161C14.9221 12.9985 14.5626 13.1711 14.4818 13.4415C14.4774 13.4558 14.4703 13.4685 14.4626 13.4806C14.4725 13.5148 14.4818 13.5486 14.4889 13.5822ZM15.0779 13.7621C15.0376 13.862 14.987 13.9567 14.9177 14.0407C14.7991 14.1847 14.6392 14.2927 14.4407 14.367C14.479 14.2511 14.5152 14.0958 14.5196 13.9154C14.5511 13.9196 14.5839 13.9223 14.6195 13.9223C14.6943 13.9223 14.7772 13.9116 14.8629 13.8813C14.9399 13.8543 15.0113 13.8138 15.0779 13.7621ZM15.0592 12.3142C14.8832 12.4265 14.6113 12.6375 14.4602 12.9354C14.6778 12.7506 14.9552 12.6444 15.1241 12.5926C15.1052 12.4948 15.0828 12.4023 15.0592 12.3142ZM14.1275 12.8905C14.0426 12.7953 13.9438 12.7055 13.8323 12.6207C14.1683 12.4265 14.4489 12.1327 14.6989 11.8698C14.752 11.8139 14.8032 11.7604 14.8539 11.7087C14.8717 11.7503 14.9141 11.8541 14.9626 11.9951C14.7474 12.1206 14.3208 12.4186 14.1275 12.8905ZM15.3476 10.1099C15.3574 10.1083 15.3673 10.1077 15.3774 10.1077C15.9316 10.1077 17.0468 12.3258 17.7051 13.7477C17.7815 13.7315 17.8557 13.715 17.928 13.6984C17.1733 11.9959 15.9319 9.75553 15.3651 9.80482C14.8618 9.84723 14.2069 10.439 13.5738 11.0112C13.1795 11.3675 12.7749 11.7318 12.3893 11.9796C12.529 12.0163 12.6607 12.0562 12.7869 12.0983C12.8025 12.081 12.8209 12.0661 12.8439 12.0567C13.2088 11.9061 13.699 11.4377 14.1313 11.0244L14.1326 11.0232C14.6189 10.5586 15.0384 10.1578 15.3476 10.1099ZM14.0637 13.352C14.3588 13.8928 14.0842 14.3981 14.0711 14.4221C14.0653 14.4326 14.0626 14.4437 14.0599 14.4549L14.0585 14.4609L14.0432 14.4631L14.0432 14.4631C14.0155 14.4671 13.988 14.4711 13.9591 14.4739C13.9741 14.4524 13.9859 14.4282 13.9889 14.4001C13.9914 14.3778 14.0418 13.8491 13.5621 13.3116C12.9164 12.5885 11.6687 12.2115 9.85495 12.1881C9.89712 12.1074 9.94093 12.0275 9.98638 11.948C10.0094 11.9637 10.0354 11.9755 10.0652 11.9769C12.8332 12.1294 13.7674 12.809 14.0637 13.352ZM9.65808 12.5942C11.8642 12.7548 12.7809 13.308 13.1598 13.7461C13.4616 14.095 13.4501 14.3893 13.4476 14.4218C13.4462 14.4425 13.4408 14.4615 13.4325 14.4791C13.5278 14.4852 13.6187 14.4868 13.7064 14.486C13.6798 14.4538 13.6653 14.4116 13.6697 14.3667C13.6713 14.3475 13.702 13.9449 13.3143 13.5175C12.8983 13.0588 11.9323 12.5127 9.69724 12.5092L9.68039 12.5456C9.67283 12.5618 9.66528 12.578 9.65808 12.5942ZM9.47874 13.058C9.49654 13.0045 9.5157 12.9514 9.53542 12.8982C9.55075 12.9046 9.56663 12.9104 9.58388 12.9117C13.1056 13.1552 13.1278 14.3767 13.1275 14.4017C13.1267 14.4185 13.1305 14.4342 13.1346 14.4499C13.0352 14.4375 12.9328 14.4224 12.8266 14.4034C12.8236 14.3466 12.8039 14.2585 12.7275 14.1525C12.4926 13.8259 11.7371 13.3713 9.47874 13.058ZM12.416 14.3193L12.4586 14.329C12.3146 14.1385 11.7349 13.6943 9.41248 13.3746C9.40651 13.3738 9.40129 13.3715 9.39609 13.3693L9.39171 13.3674L9.38647 13.3655L9.38509 13.3714L9.38318 13.3804L9.38173 13.3873L9.37989 13.3953C10.6233 13.4435 12.11 14.1941 12.299 14.2921C12.3388 14.3018 12.3774 14.3105 12.4159 14.3193L12.416 14.3193L12.416 14.3193ZM10.1583 11.6599C10.3347 11.3774 10.5263 11.1034 10.7251 10.8429L10.7261 10.8432L10.7264 10.8434C10.7268 10.8436 10.7272 10.8438 10.7276 10.8438C10.758 10.847 10.7854 10.8512 10.8127 10.8555L10.8127 10.8555L10.8483 10.8608C10.6903 11.0558 10.5058 11.3559 10.5209 11.6847C10.4031 11.6751 10.2813 11.6674 10.1583 11.6599ZM11.2831 11.7412C11.4003 11.7117 11.5559 11.6038 11.7327 11.454C11.7371 11.4355 11.7568 11.3358 11.6829 11.224C11.6216 11.1315 11.4871 11.0211 11.2106 10.9377C11.083 11.0671 10.8015 11.3945 10.8464 11.7147C10.982 11.7285 11.1139 11.7436 11.2421 11.7607L11.2439 11.7596C11.2562 11.7523 11.2685 11.7448 11.2831 11.7412ZM10.9562 10.5499L10.9624 10.5423L10.969 10.5342L10.9737 10.5282L10.9829 10.5307C10.9919 10.5333 11.0009 10.5359 11.0107 10.5359C11.5052 10.5398 11.8346 10.6433 11.9636 10.8355C12.0457 10.958 12.0298 11.0949 12.0128 11.1662C11.9986 11.1307 11.9814 11.0943 11.9578 11.0572C11.796 10.8019 11.4587 10.6317 10.9562 10.5499ZM12.3458 10.4258C12.1519 10.2716 11.8371 10.2093 11.4305 10.2432C11.8184 10.3007 12.0879 10.4401 12.2324 10.6598C12.2836 10.7377 12.3138 10.8176 12.3299 10.8939C12.3663 10.8581 12.4025 10.8223 12.4392 10.7859L12.4855 10.74L12.5325 10.6934C12.5131 10.6287 12.4652 10.5208 12.3458 10.4258ZM11.5014 9.91524C11.578 9.83098 11.6539 9.74892 11.7278 9.67072C12.3118 9.81666 12.8597 9.98738 13.1656 10.0873C13.0336 10.2071 12.9044 10.3299 12.7781 10.4525C12.7319 10.3652 12.6618 10.2683 12.5547 10.1807C12.3097 9.98023 11.9551 9.89211 11.5014 9.91524ZM12.1782 9.21307C12.1166 9.27337 12.0525 9.33725 11.9866 9.40389C12.6538 9.57792 13.2444 9.77233 13.4473 9.84062C13.5141 9.78444 13.5818 9.72937 13.6497 9.67622C13.3438 9.56415 12.799 9.37636 12.1782 9.21307ZM12.4501 8.9523C12.5306 8.87685 12.6032 8.81021 12.6678 8.75211C13.3236 8.95808 13.8487 9.19021 14.1425 9.33147C14.0817 9.36837 14.0212 9.40747 13.961 9.44823C13.7669 9.37388 13.1735 9.15276 12.4501 8.9523ZM12.9541 8.50166L12.9506 8.50456C13.1845 8.58221 13.4 8.66152 13.5908 8.73779C13.5426 8.58193 13.4643 8.42195 13.3395 8.38009C13.1993 8.33301 13.0232 8.44425 12.9671 8.49079L12.9635 8.49387L12.9541 8.50166ZM13.9635 8.89365L13.9471 8.88648C13.9363 8.88171 13.9255 8.87694 13.9142 8.87217C13.932 8.83857 13.9394 8.79892 13.9298 8.75899C13.8383 8.3812 13.673 8.15017 13.4386 8.07307C13.1025 7.9616 12.7802 8.22744 12.7634 8.24131L12.7631 8.24159L12.762 8.24251L12.762 8.24252L12.7619 8.24254C12.7228 8.27499 11.7493 9.08264 10.8081 10.2176C9.57402 11.7056 8.95056 13.0535 8.95001 14.2285L8.90342 14.2258L8.85938 14.2233C8.96288 10.9374 12.4468 8.30107 12.48 8.27656C12.6927 8.12483 13.32 7.77375 13.668 7.96595C13.9246 8.10749 13.9728 8.53182 13.9635 8.89365ZM9.31527 13.7147C9.30514 13.7769 9.29529 13.8392 9.28871 13.9011C10.1689 13.9341 10.5684 14.1026 11.291 14.4073L11.2914 14.4075L11.3284 14.4231C11.5199 14.5035 11.735 14.5938 11.9888 14.6939C13.702 15.0788 14.8293 14.9442 15.3399 14.2935C15.3659 14.2607 15.3897 14.2266 15.4119 14.1919C15.4188 14.1701 15.4305 14.1511 15.4453 14.1343C15.5538 13.9443 15.6159 13.7304 15.6427 13.5062L15.6433 13.4991C15.7391 12.6796 15.3837 11.7326 15.2342 11.3802C15.1855 11.4094 15.1348 11.4482 15.0831 11.492C15.105 11.5077 15.1247 11.5272 15.1367 11.5536C15.1693 11.6252 15.9283 13.3179 15.1652 14.2459C14.8577 14.6198 14.3553 14.8071 13.6645 14.8071C13.2461 14.8071 12.7587 14.7385 12.2037 14.6008C12.1911 14.5978 12.179 14.5931 12.1675 14.587C12.1511 14.5782 10.5507 13.7408 9.31527 13.7147ZM9.78513 14.2651C9.61099 14.2591 9.4404 14.2522 9.27256 14.2442L9.27229 14.223C9.46532 14.2304 9.63262 14.2445 9.78513 14.2651ZM18.0106 11.908C18.3299 12.6066 18.5506 13.2292 18.6445 13.5076C19.4298 13.2628 19.8033 13.0037 19.8033 12.7933C19.8033 12.5675 19.3263 12.2211 18.0106 11.908ZM15.6441 9.35185C16.9803 9.84447 18.0868 12.8715 18.3351 13.5974C18.3167 13.6024 18.2977 13.6073 18.2786 13.6122L18.2445 13.6211C17.8354 12.6917 16.3516 9.48182 15.3741 9.48182C15.3621 9.48182 15.3498 9.48237 15.338 9.48347C14.7268 9.53441 14.0623 10.1353 13.3589 10.7713C12.8926 11.1929 12.4101 11.6288 11.9901 11.84C11.9715 11.8494 11.9562 11.8623 11.943 11.8769C11.8836 11.8648 11.8228 11.8535 11.7615 11.8425C12.0216 11.6519 12.3195 11.3579 12.6645 11.0159C13.57 10.1187 14.6967 9.00241 15.6441 9.35185ZM13.7669 7.53391C12.9687 7.01457 11.7264 8.1207 11.7138 8.13199C11.678 8.16614 7.90433 11.7745 8.2466 14.1834C8.34298 14.1905 8.44045 14.1971 8.5393 14.2037C8.59899 12.4287 9.58333 10.8641 10.4163 9.85191C11.3415 8.72705 12.2533 8.0436 12.2916 8.01496C12.3321 7.98605 13.2291 7.35547 13.8225 7.68315C14.1609 7.86985 14.3156 8.3107 14.2816 8.99333C14.2812 9.00568 14.2773 9.01708 14.2735 9.02833L14.2735 9.02834L14.2735 9.02835L14.2712 9.03518C14.3594 9.07759 14.4289 9.11256 14.4771 9.13762C14.4832 8.84491 14.4413 7.97283 13.7669 7.53391ZM7.91857 14.1572C7.72006 14.1407 7.52702 14.1228 7.33946 14.1038C7.56098 13.6657 7.82849 13.5919 7.91638 13.58C7.89776 13.7766 7.89776 13.9694 7.91857 14.1572ZM6.90141 14.0559L7.00213 14.0677C7.36398 13.2432 7.92713 13.2548 7.95696 13.2554L7.95718 13.2554C7.95853 13.2554 7.95972 13.2558 7.96092 13.2562C7.96191 13.2566 7.96291 13.2569 7.96402 13.257L7.96842 13.2335C7.97618 13.1918 7.98392 13.1503 7.9936 13.1083C7.73265 13.1601 7.2053 13.3496 6.83127 14.0476L6.90141 14.0559ZM6.49558 14.0049L6.44909 13.9987C6.40151 13.9923 6.35424 13.986 6.30775 13.9793C6.78774 12.9214 7.75127 12.6474 8.1483 12.5796C8.12612 12.643 8.10558 12.706 8.08614 12.7691C7.84601 12.7903 7.00843 12.9437 6.49558 14.0049ZM5.7897 13.9006C5.85076 13.9105 5.91319 13.9204 5.97617 13.9303C6.59361 12.4491 8.07437 12.2569 8.28164 12.2374C8.31779 12.1517 8.35557 12.0661 8.39582 11.9807L8.39414 11.9812L8.39181 11.9821C8.39025 11.9827 8.38869 11.9833 8.38706 11.9835C8.36625 11.9857 6.37429 12.2054 5.7897 13.9006ZM5.3946 11.8296C5.4573 11.7662 5.52 11.7037 5.58215 11.6434C5.72892 12.0314 5.94906 12.9277 5.34887 13.8221C5.23277 13.8001 5.12024 13.7775 5.01208 13.7546C5.54054 12.8611 5.45018 12.095 5.3946 11.8296ZM3.98557 13.4905C4.18983 13.5555 4.42038 13.6191 4.67858 13.6805C5.09313 13.0304 5.13612 12.4552 5.11175 12.1236C4.74402 12.5191 4.36754 12.9737 3.98557 13.4905ZM5.56895 11.2222L5.56894 11.2222C5.5659 11.2229 5.56289 11.2236 5.55998 11.2251C5.5304 11.2414 5.51042 11.2667 5.49618 11.2948C5.37543 11.4088 5.25851 11.5231 5.1457 11.6376C5.11312 11.6544 5.08738 11.6795 5.0726 11.7114C4.47104 12.3304 3.99077 12.9373 3.66631 13.3807C3.60388 13.357 3.54611 13.3333 3.4908 13.3096C5.2429 10.1884 7.981 8.98341 9.96311 8.89778C10.1345 8.89034 10.3232 8.89475 10.5261 8.91072C10.4735 8.96992 10.4198 9.03133 10.3651 9.09466C10.238 9.0842 10.1184 9.07841 10.0138 9.07952C9.05954 9.09604 8.1535 9.42207 7.33152 9.89927L7.32851 9.90092C7.1478 10.0058 6.97146 10.1182 6.79924 10.236C6.77514 10.2446 6.75406 10.2597 6.73626 10.279C6.58293 10.3858 6.43343 10.4971 6.28776 10.6114C6.2571 10.6224 6.2319 10.6436 6.21246 10.6711C6.09336 10.7664 5.97699 10.8636 5.86363 10.9622C5.84529 10.9688 5.82749 10.9779 5.81215 10.9914C5.79709 11.0046 5.78614 11.0208 5.77738 11.0382C5.70865 11.0985 5.64185 11.1591 5.57613 11.2202C5.57373 11.2211 5.57133 11.2217 5.56895 11.2222ZM7.74224 10.0466C7.68994 10.0736 7.63737 10.1011 7.58398 10.1306C7.72581 10.6565 8.55271 10.9481 8.91825 11.0294C8.94125 10.9922 8.96425 10.9553 8.9878 10.9184C8.65046 10.833 7.92186 10.5874 7.74224 10.0466ZM8.74465 11.3182C8.66306 11.4592 8.5842 11.6013 8.5111 11.7445C8.48098 11.6902 8.42129 11.6564 8.35557 11.6621C8.35146 11.6624 8.27836 11.6707 8.1587 11.6938C8.1587 11.3986 8.02371 11.1401 7.8419 10.9258C8.16883 11.1425 8.5434 11.2642 8.74465 11.3182ZM5.92203 11.3275C5.89242 11.3535 5.86276 11.3795 5.83296 11.4069C5.9329 11.6363 6.12265 12.1751 6.05311 12.825C6.24094 12.6135 6.44986 12.4398 6.6637 12.2971C6.63386 11.9273 6.47833 11.4889 5.95481 11.2987L5.92203 11.3275ZM6.22725 11.0649C6.27325 11.0269 6.31898 10.9892 6.3647 10.9528C6.60073 11.074 7.23596 11.4551 7.19489 12.0025C7.11932 12.0369 7.04265 12.0744 6.96517 12.1159C6.8874 11.6296 6.63194 11.2673 6.22725 11.0649ZM6.86824 10.5767C6.79404 10.6284 6.71901 10.6821 6.64344 10.7383C6.9586 10.9228 7.47226 11.3088 7.5147 11.8722C7.62724 11.8318 7.7332 11.7987 7.82986 11.7717C7.89804 11.175 7.12535 10.7127 6.86824 10.5767ZM7.1697 10.3759C7.21406 10.3478 7.25814 10.3211 7.30195 10.2947C7.33618 10.3894 7.38273 10.4773 7.4416 10.5571C7.34439 10.485 7.25048 10.4241 7.1697 10.3759ZM8.29259 9.79078C8.20799 9.82547 8.12146 9.86265 8.03302 9.9034C8.14748 10.3845 8.99683 10.5918 9.177 10.6304L9.18414 10.6198L9.18435 10.6195C9.21664 10.5716 9.24876 10.5241 9.2816 10.477C9.01381 10.4079 8.56148 10.2526 8.36652 9.95847C8.33148 9.90533 8.30848 9.8486 8.29259 9.79078ZM8.63376 9.77976C8.61131 9.74589 8.59899 9.71202 8.59433 9.67678C8.66333 9.65282 8.73042 9.63107 8.79613 9.61096C8.82242 9.67623 8.86212 9.73598 8.91469 9.7883C9.08692 9.9604 9.36894 10.0292 9.58662 10.0568C9.55267 10.1019 9.51871 10.1474 9.48476 10.1934C9.26571 10.1474 8.78381 10.0061 8.63376 9.77976ZM9.12392 9.53543C9.12876 9.54368 9.13359 9.55189 9.14113 9.55947C9.28871 9.70679 9.64439 9.74617 9.82127 9.75085C9.91601 9.63079 10.0099 9.51514 10.1027 9.40334L10.0938 9.40321L10.07 9.40261C10.0524 9.40212 10.0348 9.40163 10.019 9.40196C9.79773 9.40582 9.49079 9.43418 9.11649 9.5234L9.12034 9.52942L9.1239 9.5354L9.12392 9.53543ZM8.5738 8.50869C9.30213 8.30988 10.1214 8.26885 11.011 8.38285C10.9425 8.45472 10.8697 8.53182 10.7914 8.61663C10.7882 8.61583 10.7852 8.61459 10.7823 8.61337C10.7782 8.61165 10.7741 8.60995 10.7695 8.60947C10.4702 8.57588 10.1942 8.56431 9.94914 8.57505C7.8775 8.66454 5.01811 9.91827 3.20193 13.167C3.14224 13.1326 3.08967 13.0982 3.04558 13.0643L3.04951 13.0592C3.05192 13.0562 3.05432 13.0532 3.05626 13.0497C4.53264 10.3211 5.82174 9.26015 8.5738 8.50869ZM6.08487 4.01643L3.26354 6.85376C3.32514 6.88956 3.38757 6.92315 3.45055 6.95372L6.33677 4.0514C6.26965 4.04126 6.19851 4.0317 6.12687 4.02208L6.08487 4.01643ZM2.82845 6.54701L5.41814 3.94263C5.50713 3.95062 5.5942 3.9586 5.67963 3.96796L2.98863 6.67423C2.93442 6.63375 2.88075 6.59134 2.82845 6.54701ZM4.71664 3.90325L2.45415 6.17857C2.49961 6.23007 2.54615 6.2788 2.59352 6.32672L4.99565 3.91096L4.94177 3.90782L4.94174 3.90782C4.86889 3.90353 4.79598 3.89924 4.7213 3.89637C4.72039 3.89741 4.71973 3.89858 4.71908 3.89972L4.71908 3.89973L4.71908 3.89973C4.71836 3.901 4.71765 3.90224 4.71664 3.90325ZM2.12996 5.75975L3.98585 3.89334C4.01962 3.89274 4.05267 3.89125 4.08571 3.88976L4.08573 3.88976C4.12849 3.88783 4.17125 3.88591 4.21557 3.88591C4.22625 3.88591 4.23672 3.88618 4.2472 3.88646C4.25767 3.88673 4.26814 3.88701 4.27882 3.88701L2.25044 5.92689C2.20964 5.87237 2.16912 5.8173 2.12996 5.75975ZM1.65459 4.21562L1.65458 4.21563C1.57532 4.236 1.49606 4.25638 1.4208 4.28078C1.43773 4.33325 1.45603 4.38433 1.47437 4.43555L1.48432 4.46334L1.75731 4.18881C1.72329 4.19796 1.68894 4.20679 1.6546 4.21562L1.65459 4.21562ZM2.69429 3.9911L1.69899 4.99204C1.66887 4.9265 1.63902 4.86041 1.61055 4.7924L2.34381 4.05498C2.37413 4.04924 2.40428 4.04333 2.43442 4.03743L2.43451 4.03741C2.52002 4.02065 2.60543 4.00392 2.69429 3.9911ZM3.174 3.96494L1.84986 5.29659C1.88354 5.35937 1.91831 5.42023 1.9539 5.48025L3.51708 3.90821C3.43815 3.91293 3.36159 3.92045 3.28501 3.92797L3.285 3.92797L3.28499 3.92797L3.28498 3.92797L3.28498 3.92797L3.28497 3.92797L3.28496 3.92797L3.28495 3.92798L3.28494 3.92798L3.28493 3.92798L3.28492 3.92798C3.25421 3.93099 3.22349 3.93401 3.19262 3.93685C3.19057 3.93998 3.18876 3.94317 3.18696 3.94633C3.18322 3.9529 3.17955 3.95936 3.174 3.96494ZM6.72586 4.11652C6.72606 4.11611 6.72627 4.1157 6.72668 4.11528C6.81211 4.13043 6.8948 4.1453 6.96982 4.15989L3.99817 7.14812C3.92232 7.13078 3.84757 7.10957 3.77392 7.08534L6.72504 4.11776C6.72545 4.11735 6.72565 4.11694 6.72586 4.11652ZM4.35932 7.35327L4.36288 7.23789L4.35932 7.24147V7.35327ZM4.27526 7.51133C4.28656 7.51166 4.29773 7.51225 4.30889 7.51285C4.32558 7.51374 4.34225 7.51463 4.35932 7.51463H4.36507C4.47213 7.51436 4.57289 7.50554 4.67338 7.49618C4.69638 7.50995 4.72075 7.51904 4.74649 7.52041L4.69282 9.8117C4.69036 9.91799 4.73992 10.0127 4.8174 10.0736C4.69967 10.1834 4.58494 10.2991 4.4724 10.42C4.40833 10.3528 4.31688 10.3159 4.21968 10.3225L4.27526 7.51133ZM7.15519 4.42975L4.41052 7.18998C4.51649 7.18833 4.61835 7.18089 4.71774 7.1696L7.00323 4.87115C7.05771 4.72879 7.1081 4.58147 7.15519 4.42975ZM5.30451 7.04404L5.30031 7.04521L5.29611 7.04638L5.29329 7.04734L6.58621 5.74708C6.23081 6.3515 5.796 6.80667 5.30451 7.04404ZM4.4516 0.904559C2.20335 0.904559 1.02733 1.38369 1.02733 1.64033C1.02733 1.65813 1.02769 1.67575 1.02805 1.69335L1.02805 1.69336C1.02832 1.70651 1.02859 1.71966 1.0287 1.73285C1.44133 1.98123 2.67129 2.28357 4.29333 2.28357C5.91538 2.28357 7.14533 1.98123 7.55796 1.73285L7.55847 1.70211C7.55876 1.68675 7.55906 1.67139 7.55906 1.65602C7.44324 1.42499 6.27763 0.904559 4.4516 0.904559ZM4.29333 2.6063C5.39596 2.6063 6.81813 2.44356 7.54865 2.09302C7.52155 2.73049 7.43749 3.33849 7.30469 3.89885C6.70176 3.76998 5.52876 3.56346 4.21557 3.56346C4.16256 3.56346 4.11148 3.56578 4.06042 3.56811L4.0604 3.56811C4.02365 3.56979 3.9869 3.57146 3.94943 3.57227C3.92835 3.56869 3.90726 3.56924 3.88645 3.57447C2.93907 3.60036 2.07958 3.73115 1.32907 3.97402C1.16999 3.39714 1.06977 2.76463 1.03883 2.09357C1.76963 2.44356 3.19098 2.6063 4.29333 2.6063ZM3.16688 12.2046C3.42563 11.7712 3.6852 11.3835 3.95299 11.0349C1.53799 11.5735 0.668643 12.2448 0.669738 12.6711C0.669738 13.6481 4.76018 15.0111 11.4214 15.0111C11.5868 15.0111 11.7494 15.0097 11.9118 15.0081L11.9077 15.0072C11.8998 15.0053 11.8918 15.0031 11.8844 15.0001C11.6147 14.8942 11.3884 14.7989 11.1878 14.7144L11.1684 14.7063C11.0712 14.665 10.9806 14.627 10.8943 14.5914C10.8716 14.6038 10.8467 14.6129 10.819 14.6129H10.8171C10.2501 14.6066 9.68245 14.5884 9.1247 14.5598L9.12402 14.5599L9.12333 14.5601L9.11849 14.5603L9.1143 14.5603L9.11215 14.5601L9.10965 14.5595L9.10775 14.559L9.10581 14.5587C8.97 14.5515 8.83501 14.5438 8.70057 14.5355C8.69961 14.5355 8.69872 14.5358 8.69783 14.5361C8.69694 14.5364 8.69605 14.5366 8.6951 14.5366H8.69482C8.69273 14.5366 8.69089 14.5361 8.68906 14.5355C8.68754 14.535 8.68604 14.5346 8.68442 14.5344C8.49302 14.5223 8.303 14.5094 8.11517 14.4948C8.1138 14.4948 8.11244 14.495 8.11108 14.4952L8.11106 14.4952L8.11104 14.4952C8.10968 14.4954 8.10832 14.4956 8.10695 14.4956C8.10384 14.4956 8.10081 14.4949 8.09777 14.4942L8.09775 14.4942C8.09545 14.4936 8.09315 14.4931 8.0908 14.4929C7.75648 14.4667 7.42873 14.4364 7.11001 14.402C7.10909 14.402 7.10816 14.4022 7.1072 14.4024C7.10618 14.4026 7.10512 14.4028 7.10399 14.4028C7.10014 14.4028 7.09638 14.4019 7.09261 14.4009L7.09259 14.4009C7.08993 14.4003 7.08726 14.3996 7.08455 14.3992C6.91862 14.3811 6.75598 14.3615 6.59552 14.3414L6.59208 14.3421L6.58999 14.3424L6.58868 14.3425C6.58433 14.3425 6.58007 14.3413 6.5758 14.34C6.57281 14.3392 6.56982 14.3383 6.56677 14.3378C6.40221 14.3169 6.23985 14.2949 6.08158 14.2717C6.08021 14.2717 6.07885 14.2723 6.07748 14.2723C6.06443 14.2723 6.05162 14.2689 6.03882 14.2656L6.03882 14.2656L6.03613 14.2649C5.88225 14.242 5.73248 14.2175 5.58571 14.1924C5.58435 14.1924 5.58298 14.193 5.58161 14.193C5.56764 14.193 5.5534 14.1911 5.53917 14.1872C5.5385 14.187 5.53787 14.1868 5.53727 14.1865C5.53631 14.1861 5.53543 14.1855 5.53453 14.1849C5.53324 14.1841 5.53195 14.1833 5.53041 14.1828C5.51386 14.1798 5.49713 14.177 5.48045 14.1742C5.46152 14.1709 5.44265 14.1677 5.42417 14.1644C5.42362 14.1644 5.4228 14.1649 5.42225 14.1649C5.40308 14.1649 5.38446 14.1605 5.36612 14.1536C5.152 14.1145 4.94719 14.0727 4.75169 14.0286L4.75005 14.0289C4.72814 14.0289 4.70651 14.0225 4.68598 14.0135C4.32564 13.9303 4.00063 13.8386 3.71861 13.7389C3.68712 13.7384 3.65536 13.7287 3.6277 13.7086C3.62715 13.7082 3.62681 13.7077 3.62647 13.7073C3.62613 13.7068 3.62579 13.7063 3.62524 13.7059C2.94318 13.4517 2.53794 13.1463 2.53794 12.7933C2.53794 12.573 2.68361 12.3673 2.97056 12.1823C3.03436 12.1407 3.11458 12.1537 3.16688 12.2046ZM11.6498 18.1835C8.53985 18.1835 5.66758 17.4533 4.15615 16.3218C6.1807 16.7227 8.72165 16.9419 11.4064 16.9419C14.3909 16.9419 17.2002 16.6718 19.3167 16.1814C19.3227 16.18 19.3282 16.1786 19.3342 16.177C17.9028 17.3872 14.9497 18.1835 11.6498 18.1835ZM11.4064 16.2965C18.0755 16.2965 22.1706 14.9885 22.1706 14.0506C22.1706 14.0477 22.171 14.0449 22.1715 14.0421C22.1718 14.0398 22.1722 14.0375 22.1723 14.0352L22.172 14.0322V13.7128C20.5059 14.9814 15.8527 15.6557 11.4203 15.6557C6.96462 15.6557 2.28494 14.9742 0.64181 13.6929V14.0322C0.64181 14.0337 0.641604 14.0352 0.641399 14.0367C0.641193 14.0382 0.640988 14.0398 0.640988 14.0413C0.640988 14.043 0.641203 14.0446 0.641412 14.0462C0.641613 14.0477 0.64181 14.0491 0.64181 14.0506C0.64181 14.9885 4.73718 16.2965 11.4064 16.2965Z" fill="currentColor"/>
</svg>
