<svg width="25" height="31" viewBox="0 0 25 31" fill="none" xmlns="http://www.w3.org/2000/svg">
<path d="M16.3707 15.2977C15.2488 15.4499 14.0015 15.5277 12.6626 15.5277C10.4356 15.5277 8.69674 15.3146 8.4696 15.2841C8.24586 15.2638 8.02218 15.2402 7.80186 15.2165C6.907 19.9352 5.74098 31.3277 15.4793 30.9928C26.6649 30.614 14.8386 22.5398 16.3707 15.2977Z" fill="currentColor"/>
<path fill-rule="evenodd" clip-rule="evenodd" d="M12.5017 0C6.02804 0 0.538812 4.80657 0.00584457 10.9415C-0.0518653 11.6209 0.321551 12.2733 0.959755 12.591C1.07857 12.6519 3.37338 13.7741 8.00715 14.2608C8.10948 14.2719 8.21385 14.282 8.31915 14.2922L8.31921 14.2923L8.3193 14.2923L8.31961 14.2923L8.31973 14.2923L8.31985 14.2923L8.31997 14.2923C8.40651 14.3007 8.49368 14.3091 8.58085 14.3183C8.58085 14.3183 10.3665 14.5549 12.6681 14.5549C13.8358 14.5549 16.6059 14.2912 16.7078 14.2811C21.4977 13.8079 23.9011 12.662 24.0268 12.6012C24.6717 12.2868 25.052 11.6311 24.9942 10.9449C24.4612 4.80657 18.9754 0 12.5017 0ZM3.85879 11.3539C3.09159 11.3539 2.45339 10.7184 2.45339 9.95453C2.45339 9.19062 3.09159 8.55515 3.85879 8.55515C4.62599 8.55515 5.2642 9.19062 5.2642 9.95453C5.2642 10.7184 4.62603 11.3539 3.85879 11.3539ZM19.1757 4.77953C19.1757 4.01561 18.5375 3.38015 17.7703 3.38015C17.0065 3.38015 16.3649 4.01561 16.3649 4.77953C16.3649 5.54344 17.0031 6.17891 17.7703 6.17891C18.5375 6.17891 19.1757 5.54344 19.1757 4.77953ZM11.3068 3.44775C12.074 3.44775 12.7122 4.08322 12.7122 4.84713C12.7122 5.61104 12.074 6.24651 11.3068 6.24651C10.5396 6.24651 9.90139 5.61104 9.90139 4.84713C9.90139 4.08322 10.543 3.44775 11.3068 3.44775ZM16.4362 10.0931C16.4362 10.857 17.0744 11.4925 17.8416 11.4925C18.6054 11.4925 19.247 10.857 19.247 10.0931C19.247 9.3292 18.6088 8.69374 17.8416 8.69374C17.0744 8.69374 16.4362 9.3292 16.4362 10.0931Z" fill="currentColor"/>
</svg>
