<svg width="15" height="19" viewBox="0 0 15 19" fill="none" xmlns="http://www.w3.org/2000/svg">
<path fill-rule="evenodd" clip-rule="evenodd" d="M11.2621 1.46746L4.54521 8.01214C4.49174 8.06389 4.45354 8.12906 4.43492 8.1999L3.8583 10.3633C3.82071 10.5051 3.86236 10.6555 3.9686 10.759C4.04924 10.8372 4.15707 10.8799 4.26807 10.8799C4.30354 10.8799 4.33945 10.8755 4.37457 10.8668L6.59492 10.3049C6.66798 10.2865 6.73451 10.2492 6.78798 10.1971L13.5045 3.65271C13.5049 3.65271 13.5049 3.65246 13.5049 3.65246L13.5052 3.65211L14.8574 2.33458C15.0228 2.17338 15.0228 1.91211 14.8574 1.75091L13.214 0.14932C13.1343 0.0717727 13.0268 0.0284424 12.9144 0.0284424C12.8021 0.0284424 12.6942 0.0717727 12.6149 0.14932L11.2628 1.46685C11.2625 1.46685 11.2625 1.4672 11.2625 1.4672L11.2621 1.46746ZM6.27057 9.5342L4.85916 9.89116L5.2256 8.51628L11.5619 2.34232L12.6067 3.36058L6.27057 9.5342ZM12.9144 1.02487L13.9591 2.04279L13.2057 2.77691L12.1606 1.75899L12.9144 1.02487Z" fill="currentColor"/>
<path fill-rule="evenodd" clip-rule="evenodd" d="M14.5581 4.50075C14.3241 4.50075 14.1345 4.68542 14.1345 4.91316V18.1745H0.847235V2.39571H8.68668C8.92076 2.39571 9.11029 2.21069 9.11029 1.98304C9.11029 1.75495 8.92076 1.57028 8.68668 1.57028H0.423618C0.189529 1.57028 0 1.75495 0 1.98304V18.5871C0 18.8152 0.189529 18.9999 0.423618 18.9999H14.5581C14.7919 18.9999 14.9814 18.8152 14.9814 18.5871V4.91316C14.9814 4.68542 14.7919 4.50075 14.5581 4.50075Z" fill="currentColor"/>
</svg>
