<svg width="37" height="32" viewBox="0 0 37 32" fill="none" xmlns="http://www.w3.org/2000/svg">
<path fill-rule="evenodd" clip-rule="evenodd" d="M26.8812 0.361816C21.7124 0.361816 17.4911 4.39774 17.2433 9.4472C15.4614 7.2059 12.7009 5.77765 9.66229 5.77765C4.33429 5.777 0 10.0611 0 15.3267C0 20.5923 4.33429 24.8764 9.66163 24.8764C10.2794 24.8764 10.8879 24.8157 11.4845 24.7027C11.3048 23.9256 11.2018 23.1197 11.2018 22.2897C11.2018 17.8985 13.8598 14.1212 17.6635 12.4141C17.9747 12.2743 18.2925 12.1463 18.6176 12.034C18.6265 12.031 18.6353 12.0276 18.644 12.0242C18.6528 12.0208 18.6615 12.0173 18.6705 12.0144C19.7745 11.6408 20.9546 11.4338 22.1848 11.4338C26.6459 11.4338 30.4873 14.0807 32.2045 17.8658C34.8613 16.1208 36.5421 13.1357 36.5421 9.91153C36.5428 4.6459 32.2085 0.361816 26.8812 0.361816ZM12.0964 11.921C11.731 11.921 11.4356 11.6284 11.4356 11.2679C11.4356 10.9283 10.8707 10.5496 10.1142 10.5496C9.3577 10.5496 8.79279 10.929 8.79279 11.2679C8.79279 11.6069 9.3577 11.9863 10.1142 11.9863C10.4796 11.9863 10.7749 12.2789 10.7749 12.6394C10.7749 12.9999 10.4796 13.2924 10.1142 13.2924C8.63223 13.2924 7.47136 12.403 7.47136 11.2679C7.47136 10.1329 8.63223 9.24345 10.1142 9.24345C11.5962 9.24345 12.7571 10.1329 12.7571 11.2679C12.7571 11.6284 12.4611 11.921 12.0964 11.921ZM28.6142 5.12916C28.6142 5.48965 28.9096 5.78222 29.2749 5.78222C29.6396 5.78222 29.9356 5.48965 29.9356 5.12916C29.9356 3.99414 28.7748 3.10467 27.2928 3.10467C25.8108 3.10467 24.6499 3.99349 24.6499 5.12916C24.6499 6.26484 25.8108 7.15365 27.2928 7.15365C27.6582 7.15365 27.9535 6.86108 27.9535 6.50059C27.9535 6.1401 27.6582 5.84753 27.2928 5.84753C26.5363 5.84753 25.9714 5.4681 25.9714 5.12916C25.9714 4.79022 26.5363 4.4108 27.2928 4.4108C28.0493 4.4108 28.6142 4.78957 28.6142 5.12916Z" fill="currentColor"/>
<path fill-rule="evenodd" clip-rule="evenodd" d="M12.5232 22.2896C12.5232 17.024 16.8575 12.7399 22.1848 12.7399C27.5128 12.7399 31.8464 17.024 31.8464 22.2896C31.8464 27.5553 27.5122 31.8394 22.1848 31.8394C16.8575 31.8394 12.5232 27.5553 12.5232 22.2896ZM16.2609 25.2036C16.3335 25.2036 16.4082 25.1912 16.4809 25.1657C16.8251 25.0456 17.0055 24.672 16.8839 24.3331C16.6685 23.729 16.5588 23.0955 16.5588 22.4509C16.5588 22.0905 16.2635 21.7979 15.8981 21.7979C15.5327 21.7979 15.2374 22.0905 15.2374 22.4509C15.2374 23.2444 15.3722 24.0235 15.6385 24.768C15.7336 25.0358 15.9886 25.2036 16.2609 25.2036ZM22.2549 29.3878C20.2251 29.3878 18.2952 28.5185 16.9592 27.0021C16.7194 26.7298 16.7485 26.3177 17.0233 26.0807C17.2975 25.8443 17.7164 25.871 17.9556 26.144C19.0398 27.3757 20.607 28.0816 22.2549 28.0816H22.2555C22.6209 28.0816 22.9169 28.3742 22.9169 28.7347C22.9169 29.0952 22.6209 29.3878 22.2562 29.3878H22.2549ZM23.9892 17.5373C23.9892 17.8978 24.2846 18.1904 24.6499 18.1904C25.0147 18.1904 25.3107 17.8978 25.3107 17.5373C25.3107 16.4023 24.1498 15.5128 22.6678 15.5128C21.1858 15.5128 20.0249 16.4016 20.0249 17.5373C20.0249 18.673 21.1858 19.5618 22.6678 19.5618C23.0332 19.5618 23.3285 19.2692 23.3285 18.9087C23.3285 18.5483 23.0332 18.2557 22.6678 18.2557C21.9113 18.2557 21.3464 17.8763 21.3464 17.5373C21.3464 17.1984 21.9113 16.8189 22.6678 16.8189C23.4243 16.8189 23.9892 17.1977 23.9892 17.5373Z" fill="currentColor"/>
</svg>
