<svg width="36" height="35" viewBox="0 0 36 35" fill="none" xmlns="http://www.w3.org/2000/svg">
<path d="M22.4664 31.0825L18.1216 30.2075C18.1017 30.2038 18.0825 30.2094 18.0626 30.2075C18.0192 30.2031 17.9782 30.2031 17.9354 30.2075C17.8963 30.2119 17.859 30.2181 17.8224 30.23C17.8026 30.2363 17.7821 30.2356 17.7628 30.2431C17.743 30.2513 17.7281 30.2669 17.7095 30.2769C17.6834 30.2906 17.6579 30.3025 17.6344 30.3206L13.5527 31.0056C13.215 31.0625 12.986 31.3844 13.0425 31.725C13.0934 32.0306 13.3559 32.2469 13.6539 32.2469C13.6874 32.2469 13.7222 32.2444 13.7569 32.2381L16.1044 31.8444L14.9536 33.0031C14.7109 33.2475 14.7109 33.6425 14.9536 33.8869C15.0746 34.0088 15.2335 34.07 15.3924 34.07C15.5513 34.07 15.7102 34.0088 15.8313 33.8869L17.3793 32.3294V34.3206C17.3793 34.6656 17.6573 34.9456 17.9999 34.9456C18.3426 34.9456 18.6206 34.6656 18.6206 34.3206V32.3294L20.168 33.8875C20.289 34.0094 20.4479 34.0706 20.6068 34.0706C20.7657 34.0706 20.9246 34.0094 21.0457 33.8875C21.2884 33.6431 21.2884 33.2481 21.0457 33.0038L19.8881 31.8381L22.2231 32.3081C22.2641 32.3163 22.305 32.3206 22.3454 32.3206C22.6353 32.3206 22.8947 32.115 22.953 31.8181C23.0207 31.48 22.8028 31.1506 22.4664 31.0825Z" fill="currentColor"/>
<path d="M21.0873 10.4263C21.2921 11.03 21.3728 11.2513 21.5137 11.6394C21.6385 11.9825 21.8104 12.4544 22.153 13.425C22.7458 15.1025 23.0164 17.2131 22.9574 19.6994C22.8687 23.4406 21.9885 26.7381 20.6708 28.7763C24.3403 26.9825 27.6616 23.1669 27.9316 18.5431C28.0092 17.2031 27.8236 15.975 27.3798 14.8931C26.7498 13.3594 26.3482 11.665 26.1726 9.83938C21.4845 5.79313 20.4821 1.11313 20.4703 1.05563L20.3685 0.554382H19.7019L20.1898 7.13876C20.4635 8.36938 20.7658 9.47501 21.0873 10.4263Z" fill="currentColor"/>
<path d="M8.0677 18.5431C8.33646 23.145 11.6274 26.9481 15.2764 28.7519C13.9674 26.7119 13.094 23.4256 13.0053 19.6988C12.9457 17.2138 13.2163 15.1025 13.8097 13.4244C14.1511 12.4581 14.323 11.9863 14.4471 11.6431C14.5893 11.2525 14.6694 11.0313 14.8748 10.4256C15.1982 9.4694 15.5011 8.36002 15.7736 7.12815L16.488 0.553772H15.6289L15.5296 1.0569C15.5185 1.11377 14.5446 5.7419 9.91425 9.77315C9.68584 11.6294 9.25508 13.3463 8.61949 14.8931C8.17508 15.975 7.98949 17.2031 8.0677 18.5431Z" fill="currentColor"/>
<path d="M15.6135 12.0738C15.4894 12.4144 15.3193 12.8838 14.9798 13.8444C14.4454 15.3563 14.1922 17.3706 14.2468 19.6694C14.3771 25.1488 16.1995 28.9794 17.9151 29.5913H18.0485C19.7641 28.9794 21.5864 25.1494 21.7168 19.6694C21.7714 17.3694 21.5182 15.3556 20.9838 13.8444C20.643 12.88 20.4723 12.4106 20.3482 12.0694C20.2042 11.6731 20.1216 11.4469 19.9124 10.83C19.5717 9.82438 19.2545 8.65876 18.969 7.36626L18.956 7.27688L18.4582 0.554382H17.7369L16.994 7.36626C16.7097 8.65626 16.3919 9.82126 16.0505 10.83C15.8407 11.4488 15.7588 11.675 15.6135 12.0738Z" fill="currentColor"/>
<path d="M29.9278 12.415C29.0657 11.9507 28.2836 11.4525 27.5667 10.9357C27.7685 12.1757 28.0863 13.3413 28.5276 14.4157C29.044 15.6732 29.2606 17.0863 29.1712 18.6163C28.8913 23.4169 25.6438 27.4225 21.9036 29.5269C30.2711 28.6969 36 24.8538 36 19.9294C36 17.0313 33.7786 14.2882 29.9278 12.415Z" fill="currentColor"/>
<path d="M6.82883 18.6163C6.73945 17.0869 6.95607 15.6738 7.47248 14.4156C7.9169 13.3338 8.25331 12.1575 8.48607 10.9031C7.76172 11.4275 6.96972 11.9325 6.09517 12.4038C2.22145 14.2881 0 17.0313 0 19.9294C0 24.6338 5.65883 28.435 13.9419 29.4419C10.2668 27.315 7.10503 23.3506 6.82883 18.6163Z" fill="currentColor"/>
</svg>
