<svg width="28" height="30" viewBox="0 0 28 30" fill="none" xmlns="http://www.w3.org/2000/svg">
<path fill-rule="evenodd" clip-rule="evenodd" d="M27.6414 9.31164C27.9076 8.10085 28.066 7.0601 27.9734 5.91686C27.884 4.81347 27.3422 1.14504 24.1229 0.260913C23.6158 0.12159 23.0543 0.0510254 22.4539 0.0510254C21.0791 0.0510254 20.0821 0.368396 19.0126 1.1465L18.6068 1.44184L18.2174 1.12533C17.3403 0.412542 15.9214 0.0510254 14 0.0510254C12.0786 0.0510254 10.6598 0.412542 9.78267 1.12533L9.3933 1.44184L8.98738 1.1465C7.91793 0.368309 6.92099 0.0510254 5.5461 0.0510254C4.94572 0.0510254 4.38431 0.12159 3.87722 0.260913C0.657787 1.14495 0.115959 4.81338 0.026564 5.91686C-0.0659495 7.0601 0.0923975 8.10085 0.35859 9.31164C0.888377 11.7212 1.21243 14.0868 1.32175 16.3431C1.35984 17.1296 1.33469 17.9329 1.31036 18.7099L1.31032 18.7113C1.26216 20.2465 1.21677 21.6966 1.6096 23.0616C2.15273 24.949 3.32292 26.6276 4.8202 27.6673C5.94327 28.447 7.3852 28.8943 8.77654 28.8943C9.27298 28.8943 9.75521 28.8378 10.2096 28.7265C10.5954 28.6319 10.9159 28.4832 11.2184 28.258L11.7406 27.8694L12.1295 28.3899C12.6644 29.1057 13.3287 29.5 13.9999 29.5C14.6712 29.5 15.3354 29.1057 15.8703 28.3899L16.2592 27.8694L16.7815 28.258C17.0839 28.4832 17.4044 28.632 17.79 28.7264C18.2444 28.8378 18.7268 28.8943 19.2232 28.8943C20.6145 28.8944 22.0564 28.4472 23.1795 27.6673C24.6768 26.6276 25.8471 24.949 26.3901 23.0616C26.783 21.6966 26.7376 20.2465 26.6894 18.7113L26.6894 18.71L26.6894 18.7099C26.6651 17.933 26.6399 17.1296 26.678 16.3431C26.7876 14.0871 27.1116 11.7212 27.6414 9.31164ZM8.87001 15.0913C8.69113 13.3918 8.64401 11.6326 8.77455 9.92779C8.87295 8.4492 9.00453 6.94341 9.38654 5.50587C9.40235 5.91246 9.41756 6.31933 9.43278 6.72637L9.43279 6.72671C9.53369 9.42567 9.63487 12.1323 9.91381 14.8176L9.9667 15.3293C10.1179 16.7956 10.2691 18.2622 10.5007 19.7187C10.6241 20.495 10.7645 21.2682 10.905 22.0414C11.0464 22.8201 11.1877 23.5986 11.3117 24.3801C9.89484 21.4596 9.19675 18.3029 8.87001 15.0913ZM16.6883 24.3801C18.1052 21.4596 18.8033 18.3028 19.1301 15.0912C19.3153 13.3327 19.3327 11.5375 19.2153 9.77375C19.1204 8.34714 18.982 6.89238 18.6135 5.50578C18.5923 6.05262 18.5729 6.60041 18.5535 7.14874C18.461 9.7664 18.368 12.3964 18.067 14.9937C17.9169 16.6239 17.7323 18.2544 17.4751 19.8716C17.3557 20.6214 17.2195 21.3683 17.0834 22.1151C16.9459 22.8692 16.8084 23.6232 16.6883 24.3801Z" fill="currentColor"/>
</svg>
