<svg width="20" height="19" viewBox="0 0 20 19" fill="none" xmlns="http://www.w3.org/2000/svg">
<path fill-rule="evenodd" clip-rule="evenodd" d="M10.1074 3.20712C13.483 3.24185 15.5966 3.01896 15.882 7H20C20 0.831976 14.9443 0 9.99878 0C5.0537 0 0 0.831976 0 7H4.08339C4.39904 2.94172 6.75857 3.17084 10.1074 3.20712Z" fill="currentColor"/>
<path fill-rule="evenodd" clip-rule="evenodd" d="M2.00071 9.99889C2.97366 9.99889 3.78216 10.0866 3.96314 8.66326C3.98724 8.47165 4 8.25197 4 8H0C0 10.114 0.895452 9.99889 2.00071 9.99889Z" fill="currentColor"/>
<path fill-rule="evenodd" clip-rule="evenodd" d="M16.0367 8H16C16 8.26885 16.0146 8.50066 16.0423 8.69989C16.2314 10.0834 17.0362 9.99894 18.0009 9.99894C19.1054 9.99894 20 10.1123 20 8H16.0367Z" fill="currentColor"/>
<path fill-rule="evenodd" clip-rule="evenodd" d="M13.9067 6.98905V6.31717C13.9067 6.01737 13.6198 6 13.2654 6H12.6878C12.3334 6 12.0464 6.01737 12.0464 6.31717V7.34376H7.95314V6.31717C7.95314 6.01737 7.66804 6 7.31364 6H6.73414C6.38021 6 6.09279 6.01737 6.09279 6.31717V7.57352C5.16121 8.7402 2.11069 13.7112 2 14.3136L2.00186 18.3281C2.00186 18.698 2.25068 19 2.5595 19H17.4424C17.7493 19 18 18.698 18 18.3281V14.2918C17.8912 13.709 14.8406 8.7402 13.9067 7.57352V6.98905ZM7.49914 15C7.22427 15 7 14.777 7 14.5004C7 14.2243 7.22427 14 7.49914 14C7.7753 14 8 14.2243 8 14.5004C8 14.777 7.7753 15 7.49914 15ZM7.49914 12C7.22427 12 7 11.777 7 11.5004C7 11.2243 7.22427 11 7.49914 11C7.7753 11 8 11.2243 8 11.5004C8 11.777 7.7753 12 7.49914 12ZM7.49914 10C7.22427 10 7 9.77702 7 9.50043C7 9.22427 7.22427 9 7.49914 9C7.7753 9 8 9.22427 8 9.50043C8 9.77702 7.7753 10 7.49914 10ZM9.49914 15C9.22256 15 9 14.777 9 14.5004C9 14.2243 9.22256 14 9.49914 14C9.7753 14 10 14.2243 10 14.5004C10 14.777 9.7753 15 9.49914 15ZM9.49914 12C9.22256 12 9 11.777 9 11.5004C9 11.2243 9.22256 11 9.49914 11C9.7753 11 10 11.2243 10 11.5004C10 11.777 9.7753 12 9.49914 12ZM9.49914 10C9.22256 10 9 9.77702 9 9.50043C9 9.22427 9.22256 9 9.49914 9C9.7753 9 10 9.22427 10 9.50043C10 9.77702 9.7753 10 9.49914 10ZM12.5 15C12.2243 15 12 14.777 12 14.5004C12 14.2243 12.2243 14 12.5 14C12.7761 14 13 14.2243 13 14.5004C13 14.777 12.7761 15 12.5 15ZM12.5 12C12.2243 12 12 11.777 12 11.5004C12 11.2243 12.2243 11 12.5 11C12.7761 11 13 11.2243 13 11.5004C13 11.777 12.7761 12 12.5 12ZM12.5 10C12.2243 10 12 9.77702 12 9.50043C12 9.22427 12.2243 9 12.5 9C12.7761 9 13 9.22427 13 9.50043C13 9.77702 12.7761 10 12.5 10Z" fill="currentColor"/>
</svg>
