<svg width="82" height="80" viewBox="0 0 82 80" fill="none" xmlns="http://www.w3.org/2000/svg">
<path d="M58.4551 0L56 6.17128C65.8715 9.95098 73.3049 18.5306 75.2997 29L82 27.7624C79.5449 15.0352 70.5259 4.56574 58.4551 0Z" fill="#0B2031"/>
<path fill-rule="evenodd" clip-rule="evenodd" d="M45 34L54.9607 9C63.7416 12.3366 70.2303 19.9961 72 29.0197L45 34ZM54.1685 21.5411C54.1685 24.664 56.7809 27.2281 60 27.2281C63.1517 27.2281 65.8315 24.664 65.8315 21.5411C65.8315 18.4181 63.2191 15.854 60 15.854C56.7978 15.854 54.1685 18.4181 54.1685 21.5411Z" fill="#0B2031"/>
<path d="M74.4124 36.1014L69.4314 36.998C69.8184 39.007 70.0204 40.9993 70.0204 43.0083C70.0204 60.7072 55.4307 75.0357 37.5596 75.0357C19.6885 75.0357 5.0315 60.6408 5.0315 43.0083C5.0315 25.3758 19.638 10.9809 37.4923 10.9809C41.5478 10.9809 45.5359 11.6949 49.2717 13.1725L51.1059 8.52367C46.8485 6.91317 42.2714 6 37.4923 6C16.8109 6.0166 0 22.5533 0 43.0083C0 63.4633 16.8109 80 37.4923 80C58.1736 80 74.9846 63.4135 74.9846 43.0083C75.0687 40.6175 74.7994 38.3594 74.4124 36.1014Z" fill="#0B2031"/>
<path fill-rule="evenodd" clip-rule="evenodd" d="M65.535 37.6023L37.0437 43L47.4559 16.2127C47.4559 16.2127 43.3379 14 36.9767 14C21.0236 14 8 27.0416 8 43.0168C8 58.9919 21.0236 72 36.96 72C52.8964 72 65.9368 58.9584 65.9368 42.9832C66.2046 41.2902 65.535 37.6023 65.535 37.6023ZM25.6438 21.6104C26.6148 21.2249 27.6024 20.9566 28.5733 20.8225C29.4773 20.6884 30.331 21.3422 30.4649 22.1971C30.5989 23.1023 29.946 23.9572 29.0923 24.0913C28.3724 24.2254 27.6024 24.4098 26.9496 24.678C25.8447 25.1474 25.0579 24.4098 24.8069 23.7728C24.4051 22.9179 24.7901 21.9289 25.6438 21.6104ZM22.5804 29.0364C21.9945 28.5838 21.2245 28.3156 20.4377 28.3827C19.517 28.4497 18.7972 29.2376 18.8642 30.1428C18.9311 31.048 19.7179 31.7688 20.6219 31.7017C21.7267 32.4058 22.5804 31.8358 22.8985 31.3832C23.4342 30.5954 23.3003 29.5561 22.5804 29.0364ZM14.9638 47.3584C14.244 46.8387 14.0598 45.7994 14.6457 45.0116C15.1647 44.2908 16.2025 44.1064 16.9893 44.6931L18.9479 46.1347C19.6677 46.6543 19.8518 47.6936 19.2659 48.4815C18.9479 48.9341 18.0607 49.5208 16.9893 48.8L14.9638 47.3584ZM17.8933 61.1208C18.7972 61.9925 19.9188 61.4393 20.2369 61.1208C20.8897 60.467 20.8897 59.411 20.2369 58.774L19.4501 57.9861C18.7972 57.3324 17.7594 57.3324 17.1065 57.9861C16.4536 58.6399 16.4536 59.6792 17.1065 60.3329L17.8933 61.1208ZM19.584 39.2116C19.584 36.4792 21.7937 34.2497 24.539 34.2497C27.2844 34.2497 29.494 36.4624 29.494 39.2116C29.494 41.9607 27.2844 44.1734 24.539 44.1734C21.7937 44.1734 19.584 41.9439 19.584 39.2116ZM23.3672 55.304C24.2879 56.2595 25.3927 55.6896 25.7108 55.3711C26.3637 54.7173 26.3637 53.678 25.7108 52.9572L24.4721 51.7168C23.8192 51.063 22.7813 51.063 22.1285 51.7168C21.4756 52.3705 21.4756 53.4098 22.1285 54.0636L23.3672 55.304ZM33.9134 67.0382C33.6455 67.759 32.9759 68.3457 31.8376 68.0775L29.109 67.1723C28.2553 66.904 27.8033 65.9318 28.0711 65.0936C28.339 64.2387 29.3099 63.7861 30.1469 64.0543L32.8755 64.9595C33.7125 65.2277 34.1644 66.1329 33.9134 67.0382ZM33.7125 50.8786C34.834 51.3983 35.6041 50.7445 35.9221 50.2249C36.3741 49.437 36.0561 48.4647 35.2693 47.9451C34.6834 47.6098 34.1644 47.1572 33.7125 46.6376C33.1266 45.9838 32.0887 45.9168 31.3689 46.5035C30.716 47.0902 30.6491 48.1295 31.235 48.8503C31.9548 49.7052 32.8085 50.359 33.7125 50.8786ZM35.8552 32.6908L35.8198 32.7146C35.4854 32.9408 34.5762 33.5557 33.5116 32.4896C32.7918 31.7688 32.3398 30.9306 31.8878 30.0087C31.5028 29.1538 31.8209 28.1815 32.6746 27.796C33.5283 27.4104 34.4992 27.7289 34.8843 28.5838C35.2023 29.2376 35.6041 29.8243 36.0561 30.3439C36.642 31.0647 36.508 32.104 35.8552 32.6908ZM37.6966 18.3416C36.7759 18.4757 36.19 19.3306 36.3239 20.2358C36.4411 21.1578 37.2948 21.8116 38.2155 21.5936C38.2155 21.5936 39.3538 22.8844 40.693 21.8618C41.4128 21.2751 41.4798 20.2358 40.8939 19.515C40.1071 18.6098 38.8684 18.1405 37.6966 18.3416ZM42.1829 64.1717C39.3873 64.1717 37.1107 61.8919 37.1107 59.0925C37.1107 56.2931 39.3873 54.0133 42.1829 54.0133C44.9784 54.0133 47.255 56.2931 47.255 59.0925C47.255 61.8919 44.9784 64.1717 42.1829 64.1717ZM47.5731 51.0127C47.8912 51.4653 48.4603 51.8844 49.3308 51.6665C50.1845 51.3983 50.7704 50.5601 50.5695 49.722C50.3184 48.6827 49.3978 47.8948 48.2929 47.8277C47.389 47.7607 46.6022 48.4815 46.5352 49.3867C46.5352 50.1075 46.9202 50.7445 47.5731 51.0127ZM59.291 52.9069L58.5042 54.1474C57.7175 55.3208 56.4787 54.8682 56.2276 54.6671C55.4408 54.2145 55.1898 53.1751 55.7087 52.3873L56.4955 51.1468C56.9474 50.359 57.9853 50.1075 58.7721 50.6272C59.5589 51.0798 59.81 52.1191 59.291 52.9069ZM58.3201 44.9445C59.0901 44.9445 59.743 44.4919 59.9439 43.704C60.2117 42.8659 59.6258 41.9439 58.7051 41.7428C57.9184 41.5416 57.1483 41.4746 56.3615 41.5416C55.4576 41.6087 54.8047 42.3965 54.8717 43.3017C54.9387 44.2237 55.7254 44.8775 56.6294 44.7434C57.0814 44.7434 57.4831 44.7434 57.9351 44.8775C58.0523 44.9445 58.1862 44.9445 58.3201 44.9445Z" fill="currentColor"/>
</svg>
