<svg width="32" height="32" viewBox="0 0 32 32" fill="none" xmlns="http://www.w3.org/2000/svg">
<path fill-rule="evenodd" clip-rule="evenodd" d="M29.8141 4.56343C29.7124 4.43167 29.3705 4.07653 29.346 4.05269C29.1214 3.845 28.8741 3.66869 28.6138 3.5181L29.3152 1.64767C29.447 1.29629 29.4006 0.919823 29.1885 0.614254C28.8748 0.161862 28.2523 -0.00127523 27.7579 0.24594L26.6015 0.82445L23.8677 0.0432738C23.345 -0.104177 22.7904 0.143038 22.5494 0.625548C22.3587 1.00767 22.4001 1.4588 22.658 1.80139L24.1438 3.78288C23.9888 3.89896 23.8382 4.02319 23.6983 4.16249C22.8437 5.01708 22.4145 6.19919 22.5181 7.34743C22.5011 10.4715 21.9333 13.9131 17.9301 17.9168C13.9446 21.9018 10.4258 22.4834 7.50568 22.5173C7.17375 22.4884 6.55634 22.5274 6.5005 22.5324C5.6114 22.6541 4.80764 23.0525 4.17579 23.6844C4.03211 23.8281 3.90599 23.9818 3.78803 24.1393L1.80466 22.6522C1.31838 22.2864 0.588028 22.3994 0.227244 22.8781C0.0145381 23.1598 -0.0507168 23.5187 0.0471656 23.8613L0.828342 26.5945L0.25046 27.7521C0.0747734 28.1035 0.092342 28.512 0.297519 28.8445C0.502695 29.1764 0.868499 29.3823 1.25313 29.3823C1.38928 29.3823 1.52356 29.3578 1.65281 29.3095L3.53768 28.6023C3.69077 28.8665 3.87211 29.1206 4.08983 29.3553C4.08983 29.3553 4.44497 29.6972 4.56356 29.7882C5.8536 30.8392 7.58975 31.3945 9.58568 31.3945C14.0807 31.3945 19.6588 28.6099 24.1413 24.1274C30.8192 17.4494 33.3065 8.84955 29.8141 4.56343ZM3.08215 27.4328L1.52042 28.0194L1.97407 27.1121C2.10081 26.8593 2.12717 26.57 2.04999 26.2996L1.36042 23.887L3.19697 25.2643C2.9623 25.9614 2.9234 26.7081 3.08152 27.4277C3.08152 27.4277 3.08215 27.4309 3.08215 27.4328ZM26.3035 2.04421L23.8916 1.35527L25.2669 3.18869C25.6836 3.04751 26.124 2.96971 26.577 2.96971C26.8707 2.96971 27.16 3.00484 27.4423 3.06571L28.0302 1.49959L27.1173 1.96955C26.8663 2.09441 26.5714 2.12202 26.3035 2.04421ZM12.7738 25.7085C11.8533 25.9545 10.929 26.0913 10.0243 26.1176H10.0061C9.66787 26.1176 9.38928 25.8484 9.37924 25.5077C9.3692 25.1614 9.64215 24.8728 9.98913 24.8627C10.796 24.8401 11.6243 24.7165 12.4506 24.4963C12.7825 24.4066 13.1289 24.6055 13.2186 24.9405C13.3077 25.2756 13.1088 25.6194 12.7738 25.7085ZM14.7678 24.9637C14.8519 24.9637 14.9385 24.9468 15.0213 24.9098C21.1471 22.1948 25.5198 16.6155 26.1623 10.6943C26.1993 10.3498 25.9509 10.0405 25.6058 10.0028C25.2632 9.96516 24.952 10.2143 24.9143 10.5594C24.3295 15.9592 20.1494 21.2655 14.513 23.7628C14.1962 23.9027 14.0531 24.2736 14.1937 24.5904C14.2972 24.8245 14.5269 24.9637 14.7678 24.9637Z" fill="currentColor"/>
</svg>
