<svg width="28" height="25" viewBox="0 0 28 25" fill="none" xmlns="http://www.w3.org/2000/svg">
<path fill-rule="evenodd" clip-rule="evenodd" d="M11.9524 5.02625C12.1203 5.41207 12.2777 5.84605 12.4006 6.32259C12.905 8.2733 12.6914 10.2278 11.767 12.1552C11.6341 12.4325 11.4866 12.7092 11.3234 12.9855C11.1613 13.2628 10.9834 13.5396 10.7903 13.8158H10.287L10.2601 13.8142L10.2599 13.8141C10.2423 13.813 10.1489 13.8069 9.99792 13.7887C9.2706 13.699 7.39043 13.3458 5.6496 11.9958C4.64603 11.2181 3.85433 10.2334 3.2949 9.06983C2.73021 7.89467 2.40254 6.53019 2.31826 5.0058V5.005C1.01268 4.84714 0 3.79024 0 2.51305C0 1.12742 1.1918 0 2.65672 0H6.69754V1.66053H2.65666C2.15977 1.66053 1.75548 2.04296 1.75548 2.513C1.75548 2.98303 2.15977 3.36546 2.65666 3.36546H3.17362V3.36562H11.0062C11.1484 3.5599 11.3385 3.84057 11.5387 4.19594C11.6757 4.43896 11.8178 4.71683 11.9524 5.02625ZM8.10378 7.78344H9.47425V6.48705H8.10378V7.78344Z" fill="currentColor"/>
<path d="M27.451 9.86841C27.3807 10.1428 27.2953 10.4272 27.193 10.7182C27.1256 10.9091 27.0496 11.1067 26.9624 11.3093V11.3098C26.7764 11.7445 26.5435 12.202 26.2518 12.6667C25.5761 13.7447 24.5844 14.8645 23.1307 15.8423C22.8902 16.0042 22.6375 16.1617 22.3708 16.3148C22.1187 16.4594 21.8549 16.6002 21.5789 16.7355C21.6219 16.9376 21.6446 17.1462 21.6446 17.36C21.6446 18.8069 20.6146 20.0284 19.2203 20.3869C18.9315 19.0604 17.7041 18.0638 16.2336 18.0638H12.6667V18.6091C12.6667 20.2233 14.0328 21.5319 15.718 21.5319C14.0328 21.5319 12.6667 22.8405 12.6667 24.4546V25H16.2337C17.9031 25 19.2585 23.7155 19.2837 22.1222C19.2838 22.1222 19.2839 22.1222 19.284 22.1222C24.1667 21.6815 28.0001 17.7317 28.0001 12.9411C28.0001 11.8642 27.8066 10.8301 27.451 9.86841Z" fill="currentColor"/>
<path d="M19.6376 3.28949C19.7793 3.55494 19.9221 3.84968 20.0575 4.17159C20.176 4.45172 20.2888 4.75299 20.3908 5.07324C20.4424 5.235 20.4911 5.4022 20.5365 5.57376C20.9638 7.19197 21.131 9.47245 20.0644 12.0825C19.9635 12.33 19.8513 12.5802 19.7271 12.8332C19.607 13.0775 19.4761 13.324 19.3333 13.5731C19.9414 13.7241 20.4798 14.0421 20.8907 14.4737C21.1536 14.345 21.4064 14.2099 21.6496 14.0676C21.8961 13.9238 22.133 13.7734 22.3591 13.6154C23.8604 12.5705 24.9134 11.2264 25.5034 9.59896C25.538 9.50341 25.5703 9.40843 25.6003 9.31448C25.742 8.87317 25.8355 8.45301 25.8962 8.07246C25.9795 7.54862 26.0005 7.09968 25.9999 6.77181C24.4935 4.88323 22.2248 3.58045 19.6376 3.28949Z" fill="currentColor"/>
<path d="M19.0413 6.10969C18.9318 5.69321 18.7992 5.30958 18.6574 4.96222C18.5317 4.65443 18.3985 4.37454 18.2676 4.12586C18.0899 3.78739 17.9155 3.50697 17.7685 3.28949H12.8834C13.0229 3.53817 13.1666 3.81806 13.3055 4.12586C13.4231 4.38514 13.5366 4.66444 13.642 4.96222C13.7346 5.22374 13.8203 5.49916 13.8962 5.78853C14.3125 7.37313 14.4793 9.59669 13.4775 12.1431C13.3697 12.418 13.2476 12.6973 13.1109 12.9794C12.9777 13.2549 12.8301 13.5342 12.6667 13.8158H17.5403C17.7245 13.5376 17.8941 13.2588 18.0493 12.9794C18.2051 12.7012 18.3458 12.4224 18.4726 12.1431C19.3794 10.1481 19.5711 8.12744 19.0413 6.10969Z" fill="currentColor"/>
</svg>
